<?xml version="1.0" encoding="UTF-8"?>
<!-- Created with Inkscape (http://www.inkscape.org/) -->
<svg width="125.56mm" height="113.04mm" version="1.1" viewBox="0 0 125.56 113.04" xmlns="http://www.w3.org/2000/svg" xmlns:cc="http://creativecommons.org/ns#" xmlns:dc="http://purl.org/dc/elements/1.1/" xmlns:rdf="http://www.w3.org/1999/02/22-rdf-syntax-ns#">
 <metadata>
  <rdf:RDF>
   <cc:Work rdf:about="">
    <dc:format>image/svg+xml</dc:format>
    <dc:type rdf:resource="http://purl.org/dc/dcmitype/StillImage"/>
    <dc:title/>
   </cc:Work>
  </rdf:RDF>
 </metadata>
 <g transform="translate(-32.439 -12.937)">
  <path d="m35.233 63.533h119.86v4.3004h-119.86z" fill="#105d2a"/>
  <path d="m35.233 63.533h32.078v4.3004h-32.078z" fill="#fff"/>
  <path d="m67.822 67.833h-2.7905l1.4605 53.897h2.6599l1.464-53.897z" fill="#105d2a"/>
  <path d="m66.492 121.73h1.33v-52.74l-2.7446 0.50095z" fill="#fff"/>
  <path d="m41.374 67.833h-2.7905l1.4605 53.897h2.6599l1.4605-53.897z" fill="#105d2a"/>
  <path d="m40.044 121.73h1.33v-52.74l-2.7481 0.50095z" fill="#fff"/>
  <path d="m148.95 67.833h-2.7905l1.4605 53.897h2.6599l1.464-53.897z" fill="#105d2a"/>
  <path d="m147.62 121.73h1.33v-52.74l-2.7446 0.50095z" fill="#fff"/>
  <path d="m122.5 67.833h-2.7905l1.4605 53.897h2.6599l1.4605-53.897z" fill="#105d2a"/>
  <path d="m121.17 121.73h1.33v-52.74l-2.7446 0.50095z" fill="#fff"/>
  <path d="m92.125 40.51h-28.497c-0.80998-0.0321-1.4926 0.59866-1.5247 1.4083-6e-3 0.15346 0.0123 0.30656 0.0536 0.45438l3.7959 18.115c0.25082 1.0527 1.1695 1.8115 2.2507 1.8591h28.519c0.80998 0.0314 1.4919-0.59937 1.5233-1.4093 6e-3 -0.1517-0.0116-0.30339-0.0522-0.44979l-3.7994-18.115c-0.25153-1.0601-1.1797-1.8221-2.2684-1.8627" fill="#333"/>
  <path d="m68.45 61.314c-0.72919-0.0494-1.3441-0.56162-1.524-1.27l-3.7959-18.115c-0.0656-0.24271-0.0176-0.50235 0.13053-0.70555 0.15381-0.17392 0.37853-0.26882 0.6103-0.25753h28.519c0.72919 0.04904 1.3441 0.56162 1.524 1.27l3.7959 18.115c0.0656 0.24271 0.018 0.50235-0.13053 0.70555-0.15275 0.17533-0.37782 0.27023-0.61031 0.25753z" fill="#fff"/>
  <path d="m89.966 59.864-3.5983-17.177c-0.0762-0.38206 0.17215-0.75353 0.55456-0.82973 0.0427-0.0085 0.0861-0.01304 0.12983-0.01341h4.6284c0.33055 0.0024 0.61489 0.23424 0.68439 0.55739l3.5983 17.163c0.0759 0.38206-0.17215 0.75353-0.55456 0.82973-0.0427 8e-3 -0.0861 0.0131-0.12983 0.01341h-4.6284c-0.32632-0.0011-0.60925-0.22578-0.68439-0.54328" fill="#e1ede6"/>
  <path d="m65.505 43.347-0.15522-0.74436h5.715l0.15522 0.74436z" fill="#105d2a"/>
  <g fill="#ebebeb">
   <path d="m68.143 45.195-0.15522-0.74436h10.015l0.15875 0.74436z"/>
   <path d="m68.673 47.04-0.15875-0.74436h11.229l0.15522 0.74436z"/>
   <path d="m69.198 48.889-0.15522-0.74436h9.0382l0.15875 0.74436z"/>
  </g>
  <path d="m67.244 51.884-0.15875-0.74436h3.616l0.15522 0.74436z" fill="#105d2a"/>
  <g fill="#ebebeb">
   <path d="m69.879 53.729-0.15522-0.74436h4.4027l0.15875 0.74436z"/>
   <path d="m75.34 53.729-0.15875-0.74436h4.4062l0.15523 0.74436z"/>
   <path d="m70.408 55.577-0.15522-0.74436h14.887l0.15522 0.74436z"/>
   <path d="m70.934 57.422-0.15522-0.74436h11.352l0.15522 0.74436z"/>
  </g>
  <path d="m105.44 62.238h-37.521c-1.0231 0-1.6863 0.58208-1.4711 1.2947h41.243c-0.21166-0.71261-1.2277-1.2947-2.2507-1.2947" fill="#333"/>
  <path d="m55.588 35.931-3.6019-17.166c-0.0741-0.38241 0.17604-0.75283 0.5588-0.82691 0.0413-0.0078 0.0832-0.01235 0.12559-0.0127h29.139c0.3295 0.0021 0.61348 0.23213 0.68439 0.55386l3.6019 17.152c0.0762 0.38206-0.17215 0.75353-0.55421 0.82973-0.043 0.0085-0.0864 0.01305-0.13018 0.01341h-29.139c-0.32632-0.0011-0.60925-0.22578-0.68439-0.54328" fill="#e1ede6"/>
  <g fill="#105d2a">
   <path d="m65.946 18.49h-6.1172l-0.13758-0.65969h6.1172z"/>
   <path d="m64.951 19.541h-2.4553l-0.13759-0.65969h2.4553z"/>
   <path d="m69.036 19.541h-3.7818l-0.13758-0.65969h3.7818z"/>
   <path d="m70.683 20.589h-7.9692l-0.13758-0.65969h7.9728z"/>
   <path d="m69.671 21.64h-6.7381l-0.13758-0.65969h6.7381z"/>
   <path d="m74.141 32.791h-4.2898l0.13759 0.65617h4.2898z"/>
   <path d="m68.792 31.352h-6.283l-0.13759-0.65969h6.283z"/>
   <path d="m71.318 33.839h-5.842l0.13758 0.65969h5.842z"/>
   <path d="m69.547 32.791h-4.2898l0.13759 0.65617h4.2898z"/>
   <path d="m73.618 31.74h-8.5796l0.13759 0.65969h8.5796z"/>
   <path d="m65.73 13.593h-6.9215l-0.13758-0.65617h6.9215z"/>
   <path d="m69.149 16.084h-7.6341l0.13758 0.65969h7.6306z"/>
   <path d="m67.621 15.036h-6.3253l0.13759 0.65617h6.3253z"/>
   <path d="m68.041 13.985h-6.9638l0.13758 0.65969h6.9638z"/>
   <path d="m65.653 23.348h-4.8119l-0.13758-0.65969h4.8119z"/>
   <path d="m73.209 25.835h-9.4015l0.13759 0.65969h9.398z"/>
   <path d="m67.484 24.787h-3.8947l0.13759 0.65969h3.8947z"/>
   <path d="m71.71 24.787h-3.8947l0.13759 0.65969h3.8947z"/>
   <path d="m71.95 23.736h-8.5796l0.13759 0.65969h8.576z"/>
   <path d="m71.932 28.985h-7.4683l0.13759 0.65617h7.4683z"/>
   <path d="m66.418 27.934h-2.1731l0.13758 0.65969h2.1696z"/>
   <path d="m69.815 27.934h-3.1009l0.13759 0.65969h3.1009z"/>
   <path d="m72.606 26.886h-8.5796l0.13759 0.65617h8.5796z"/>
   <path d="m79.362 26.709h-3.0727l-0.13759-0.65969h3.0762z"/>
   <path d="m84.477 26.709h-4.7343l-0.13758-0.65969h4.7343z"/>
   <path d="m86.488 27.761h-9.9801l-0.13759-0.65969h9.9801z"/>
   <path d="m85.161 28.809h-8.4349l-0.13758-0.65969h8.4349z"/>
   <path d="m88.94 22.536h-9.5568l0.13758 0.65617h9.5568z"/>
   <path d="m87.084 21.485h-7.9199l0.13758 0.65969h7.9163z"/>
   <path d="m85.652 20.437h-8.7207l0.13759 0.65617h8.7207z"/>
   <path d="m89.37 33.007h-11.769l0.13759 0.65969h11.769z"/>
   <path d="m82.258 31.959h-4.8754l0.13758 0.65617h4.8754z"/>
   <path d="m87.55 31.959h-4.8754l0.13758 0.65617h4.8754z"/>
   <path d="m87.902 30.908h-10.739l0.13759 0.65969h10.739z"/>
   <path d="m87.606 36.153h-9.3486l0.13758 0.65969h9.3486z"/>
   <path d="m80.759 35.106h-2.7199l0.13759 0.65969h2.7199z"/>
   <path d="m85.013 35.106h-3.8806l0.13759 0.65969h3.8806z"/>
   <path d="m88.562 34.054h-10.742l0.13758 0.65969h10.739z"/>
   <path d="m59.959 36.968h-7.3166l0.13758 0.65969h7.3166z"/>
   <path d="m57.796 35.921h-5.3728l0.13759 0.65617h5.3693z"/>
   <path d="m63.543 35.921h-5.3693l0.13759 0.65617h5.3728z"/>
   <path d="m62.947 34.869h-10.742l0.13758 0.65969h10.739z"/>
  </g>
  <path d="m100.07 29.826c0.13053 0.28222 0.0882 0.58208-0.0988 0.66675-0.18697 0.08467-0.44097-0.07408-0.5715-0.35278-0.13053-0.27869-0.0847-0.58208 0.0988-0.66675 0.18344-0.08467 0.44097 0.05644 0.5715 0.35278" fill="#263238"/>
  <path d="m100.19 30.384s0.11289 1.9262-0.23283 3.0409c0.70555 0.23636 1.4676-0.35278 1.4676-0.35278z" fill="#ffb573"/>
  <path d="m100.11 27.494c-0.03 0.02469-0.067 0.03951-0.10583 0.04233-0.46567 0.01235-0.89712 0.2473-1.1606 0.63147-0.0476 0.08925-0.15875 0.12312-0.248 0.07549-0.0896-0.04763-0.12348-0.15875-0.0755-0.24836 2e-3 -0.0035 4e-3 -0.0071 6e-3 -0.01058 0.3242-0.49248 0.86783-0.79622 1.457-0.81492 0.10125-0.0056 0.18768 0.07197 0.19332 0.17321 3e-3 0.05786-0.0215 0.1143-0.0663 0.15134" fill="#263238"/>
  <path d="m110.46 29.389c1.0901 3.7747 2.3072 6.7028 3.7924 8.3749 0 0 0.0282 2.9669-5.0271 4.378-5.5598 1.5522-3.429-2.0179-3.429-2.0179 2.8222-1.5699 2.5541-3.9405 0.43039-4.8436z" fill="#ffb573"/>
  <path d="m115.43 37.041c-0.0988-1.3794-0.22931-2.9527-1.0795-2.9951-0.93839-0.04233-6.3712 2.3848-7.5318 4.0957-1.1606 1.711 1.1077 3.3867 1.1077 3.3867z" fill="#333"/>
  <path d="m104.32 58.401-4.6919-0.15522 0.0847 3.9299s4.0922-0.42333 4.2721-1.4993z" fill="#ffb573"/>
  <path d="m97.144 60.176-0.49389 2.0108 3.0586-7e-3 -0.0847-3.93z" fill="#ffb573"/>
  <path d="m123.15 42.071-0.0988 1.0089c-0.0318 0.32456-0.0741 0.64206-0.11641 0.96308-0.0811 0.63853-0.18345 1.2771-0.29281 1.9121-0.21167 1.2735-0.48683 2.54-0.80433 3.8135-0.32279 1.2979-0.71367 2.5777-1.1712 3.8347-0.24341 0.64559-0.49741 1.2912-0.8008 1.9473-0.30586 0.68827-0.65934 1.3543-1.0583 1.9932-0.0952 0.16581-0.2152 0.35278-0.33162 0.508-0.11641 0.15522-0.2293 0.35278-0.35277 0.51506-0.12348 0.16227-0.254 0.35277-0.41628 0.51858l-0.22931 0.26105c-0.0818 0.0963-0.16933 0.18803-0.26105 0.27517-0.70732 0.6925-1.536 1.2485-2.4448 1.6404-1.3945 0.59796-2.8741 0.97296-4.385 1.1112-0.68792 0.0811-1.3688 0.11289-2.0355 0.13053-0.66675 0.0176-1.3335 0-1.9897-0.0353-0.65617-0.0353-1.3053-0.0917-1.9509-0.16934-0.64558-0.0776-1.2735-0.17991-1.9579-0.3175l0.11289-3.6865c2.2525-0.3937 4.4792-0.92393 6.6675-1.5875 0.48683-0.15805 0.96484-0.34184 1.4323-0.55034 0.39794-0.16792 0.77859-0.37465 1.136-0.61736 0.20779-0.12523 0.38417-0.29668 0.51505-0.50094l0.10231-0.16228c0.0473-0.0691 0.091-0.14111 0.13053-0.21519 0.0505-0.08114 0.0963-0.16475 0.13758-0.25047 0.0459-0.09172 0.0953-0.17639 0.14111-0.27869 0.41452-0.90488 0.7553-1.8415 1.0195-2.8011 0.28928-1.0372 0.56092-2.1167 0.77964-3.235 0.21872-1.1183 0.43039-2.2472 0.62442-3.3867l0.26811-1.7145 0.24341-1.6686z" fill="#105d2a"/>
  <path d="m123.15 42.071-0.0988 1.0089c-0.0318 0.32456-0.0741 0.64206-0.11641 0.96308-0.0811 0.63853-0.18345 1.2771-0.29281 1.9121-0.21167 1.2735-0.48683 2.54-0.80433 3.8135-0.32279 1.2979-0.71367 2.5777-1.1712 3.8347-0.24341 0.64559-0.49741 1.2912-0.8008 1.9473-0.30586 0.68827-0.65934 1.3543-1.0583 1.9932-0.0952 0.16581-0.2152 0.35278-0.33162 0.508-0.11641 0.15522-0.2293 0.35278-0.35277 0.51506-0.12348 0.16227-0.254 0.35277-0.41628 0.51858l-0.22931 0.26105c-0.0818 0.0963-0.16933 0.18803-0.26105 0.27517-0.70732 0.6925-1.536 1.2485-2.4448 1.6404-1.3945 0.59796-2.8741 0.97296-4.385 1.1112-0.68792 0.0811-1.3688 0.11289-2.0355 0.13053-0.66675 0.0176-1.3335 0-1.9897-0.0353-0.65617-0.0353-1.3053-0.0917-1.9509-0.16934-0.64558-0.0776-1.2735-0.17991-1.9579-0.3175l0.11289-3.6865c2.2525-0.3937 4.4792-0.92393 6.6675-1.5875 0.48683-0.15805 0.96484-0.34184 1.4323-0.55034 0.39794-0.16792 0.77859-0.37465 1.136-0.61736 0.20779-0.12523 0.38417-0.29668 0.51505-0.50094l0.10231-0.16228c0.0473-0.0691 0.091-0.14111 0.13053-0.21519 0.0505-0.08114 0.0963-0.16475 0.13758-0.25047 0.0459-0.09172 0.0953-0.17639 0.14111-0.27869 0.41452-0.90488 0.7553-1.8415 1.0195-2.8011 0.28928-1.0372 0.56092-2.1167 0.77964-3.235 0.21872-1.1183 0.43039-2.2472 0.62442-3.3867l0.26811-1.7145 0.24341-1.6686z" fill="#1a1a1a"/>
  <path d="m102.32 46.76c1.7491 7.5417 2.734 15.241 2.9386 22.98h20.655c0.11289-2.5506-0.3175-16.933-2.3954-27.323-0.76447-3.9003-4.5462-6.4424-8.4466-5.678-0.0536 0.01058-0.1076 0.02152-0.16122 0.03351l-0.0988 0.02469c-2.5788 0.58561-6.2794 1.5311-8.4667 2.3601l-0.0882 0.03528c-3.0258 1.1765-4.7103 4.414-3.937 7.5671" fill="#006837"/>
  <path d="m103.66 53.357c0.16228 0.99131 0.32808 2.0426 0.47978 3.1433 1.6898-1.7639 2.226-7.1684 2.226-7.1684z" fill="#1a1a1a"/>
  <path d="m86.5 58.659-4.6884-0.43744-0.15522 3.9264c1.5794 0.43604 3.2702-0.0413 4.3886-1.2382z" fill="#ffb573"/>
  <path d="m79.582 59.379-1.5028 2.6988 3.5913 0.0706 0.15523-3.9264z" fill="#ffb573"/>
  <path d="m110.07 44.95c-0.32456 0.61736-0.61383 1.1642-0.93839 1.7286-0.32455 0.56444-0.635 1.1148-0.97014 1.6616-0.66322 1.1007-1.3511 2.1802-2.0779 3.2491-1.4591 2.189-3.0755 4.269-4.8366 6.223-0.94333 1.052-1.9682 2.0278-3.0656 2.9175-0.13758 0.11641-0.29986 0.2293-0.45156 0.35278-0.15169 0.12347-0.28575 0.22225-0.51152 0.35277-0.22578 0.13053-0.41628 0.26106-0.62089 0.37395s-0.41628 0.21519-0.62442 0.30691c-0.77823 0.33797-1.5924 0.58526-2.4271 0.73731-1.4598 0.24624-2.9475 0.2794-4.4168 0.0988-0.68827-0.0787-1.3712-0.1965-2.0461-0.35278-0.3362-0.0776-0.66781-0.16581-0.99483-0.26458-0.35278-0.0988-0.63853-0.20814-1.016-0.35278l0.58208-3.6407c2.2154-0.29986 4.6108-0.68439 6.2618-1.4323 0.36653-0.15063 0.71155-0.34854 1.0266-0.58913 0.127-0.0871 0.24483-0.18662 0.35278-0.29634 0.0247-0.0318 0.13405-0.127 0.21519-0.20461 0.0811-0.0776 0.17639-0.15169 0.26458-0.24342 0.75495-0.74824 1.4623-1.5438 2.1167-2.3812 1.4203-1.8323 2.7471-3.7349 3.9758-5.7009 0.635-0.99836 1.2524-2.0144 1.8697-3.0339l0.91017-1.5311 0.87841-1.5064z" fill="#006837"/>
  <path d="m104.4 118.59h-3.8594l-1.9438-8.9429h3.8629z" fill="#ffb573"/>
  <path d="m100.32 117.76h4.3392c0.15487 6e-3 0.28786 0.11148 0.32808 0.26106l0.762 3.436c0.0663 0.3048-0.127 0.60537-0.43145 0.67169-0.0437 0.01-0.0882 0.0138-0.13299 0.0127-1.5134-0.0247-2.2507-0.11289-4.1592-0.11289-1.1748 0-2.6811 0.11995-4.3004 0.11995s-1.8344-1.6016-1.1712-1.7462c2.9774-0.65264 3.175-1.5487 4.1381-2.406 0.1725-0.15416 0.39652-0.23848 0.62794-0.23636" fill="#263238"/>
  <path d="m102.46 109.65h-3.8664l1.0795 4.953 3.7888-0.34219z" fill="#ffb573"/>
  <path d="m109.23 24.852c1.4111 3.5701 2.3918 5.5915 1.4605 8.1844-1.4111 3.8982-6.417 4.2933-8.8512 1.21-2.1872-2.7764-4.0993-8.1492-1.337-11.102 1.9583-2.1191 5.2638-2.2497 7.3829-0.2914 0.59796 0.55245 1.0583 1.2368 1.3448 1.9988" fill="#ffb573"/>
  <path d="m102.45 30.2c-0.57856 0.77611-1.0231 1.3652-1.0231 1.3652s-1.1889-2.9528-0.73377-4.3074c-0.57856-1.1465-1.7463 0.54328-2.1872-1.6898-0.44097-2.2331 1.4676-4.632 2.1872-5.1294 0.0741 0.26035 0.10759 0.53022 0.0988 0.80081 1.9445-1.5783 4.4161-2.3587 6.9144-2.1837-0.20885 0.31044-0.34184 0.66569-0.38806 1.0372 0 0 4.1875 0.70556 5.14 3.0762-0.33691-0.16087-0.69251-0.2794-1.0583-0.35278 0.76765 1.1007 1.0717 2.4589 0.84667 3.7818-0.30374 1.9293-0.46179 3.8784-0.47272 5.8314 0.0388 1.0019-2.7093 2.9175-4.385 0.87136-1.6757-2.0461-4.9389-3.1009-4.9389-3.1009" fill="#3a210c"/>
  <path d="m104.19 29.431c0.21837 0.8315 0.15628 1.712-0.17639 2.5047-0.44803 1.0583-1.3688 0.80433-1.8239-0.11994-0.41275-0.82903-0.67733-2.3671 0.0529-3.1044 0.73025-0.7373 1.6722-0.27869 1.9473 0.71967" fill="#ffb573"/>
  <path d="m111.45 69.726s-17.935 6.5052-18.461 15.109c-0.97367 15.85 5.5069 28.399 5.5069 28.399l5.9408-0.635s-1.0583-5.1012-1.845-19.459c-0.99131-18.045 29.633 0.42333 23.326-23.414z" fill="#105d2a"/>
  <path d="m111.45 69.726s-17.935 6.5052-18.461 15.109c-0.97367 15.85 5.5069 28.399 5.5069 28.399l5.9408-0.635s-1.0583-5.1012-1.845-19.459c-0.99131-18.045 29.633 0.42333 23.326-23.414z" fill="#e1ede6"/>
  <path d="m96.847 111.05c-0.0282 0 0.94544 2.6388 0.94544 2.6388l7.4083-0.72672-0.37042-2.3989z" fill="#006837"/>
  <path d="m87.714 119.03h-3.8629l-1.1289-8.9464h3.8629z" fill="#ffb573"/>
  <path d="m83.823 117.76h4.2333c0.15734-2e-3 0.29457 0.10724 0.32809 0.26106l0.76905 3.4325c0.0801 0.29916-0.0977 0.60678-0.39723 0.68686-0.0512 0.0134-0.10371 0.0198-0.15663 0.0187-1.5205-0.0247-3.7218-0.10936-5.6444-0.10583-2.2366 0-2.6635 0.12347-5.2917 0.127-1.5875 0-2.0285-1.5981-1.3652-1.7639 3.0198-0.66323 3.9864-0.73731 6.5934-2.3495 0.27516-0.18839 0.59831-0.29457 0.93133-0.30692" fill="#263238"/>
  <path d="m82.725 110.08 0.61383 4.8719 3.8312-0.26105-0.58208-4.6108z" fill="#ffb573"/>
  <path d="m105.25 69.726s-29.386 2.607-29.069 17.367c0.32809 15.353 6.0642 25.707 6.0642 25.707h5.7362s-1.0866-7.9657-0.89253-23.079c0.0564-4.5261 9.2075-6.0219 18.14-6.5511 7.7188-0.45861 14.944-4.8578 17.942-11.994l0.61736-1.4499z" fill="#105d2a"/>
  <path d="m105.25 69.726s-29.386 2.607-29.069 17.367c0.32809 15.353 6.0642 25.707 6.0642 25.707h5.7362s-1.0866-7.9657-0.89253-23.079c0.0564-4.5261 9.2075-6.0219 18.14-6.5511 7.7188-0.45861 14.944-4.8578 17.942-11.994l0.61736-1.4499z" fill="#e1ede6"/>
  <path d="m80.905 111.26c-0.0247 0 0.98425 2.6529 0.98425 2.6529l6.9286-0.49742-0.4057-2.3989z" fill="#006837"/>
  <g fill="#333">
   <path d="m112.97 53.138-3.7289 14.369c-0.95356 3.6812-1.4348 7.4687-1.4323 11.271v6.6781c0 1.6863 1.2418 3.0551 2.7764 3.0551h19.114c1.5346 0 2.7764-1.3688 2.7764-3.0551v-6.6781c-1e-3 -3.803 0.48119-7.5904 1.4358-11.271l3.2914-12.7c0.508-1.9509-0.8255-3.8806-2.6705-3.8806h-18.895c-1.2905 0.04057-2.3883 0.95144-2.667 2.2119"/>
   <path d="m89.195 81.554 0.62442 3.5631c0.33161 1.8732 1.9791 3.3937 3.683 3.3937h21.248c1.7039 0 2.8222-1.5205 2.4906-3.3937l-0.62441-3.5631c-0.37748-2.1343-2.2507-3.8629-4.191-3.8629h-20.384c-1.9544 0-3.2209 1.7286-2.8469 3.8629"/>
   <path d="m116.8 92.088h-11.13l-1.0866-3.5772h13.303z"/>
  </g>
  <path d="m109.24 92.088h3.9758v26.603h-3.9758z" fill="#4d4d4d"/>
  <path d="m113.22 118.69h-3.9758v-25.964l3.9758 0.40569z" fill="#4d4d4d"/>
  <path d="m112.25 118.69h-0.94897v-25.756l0.94897 0.0988z" fill="#fff"/>
  <path d="m120.37 122.8h-18.288c-0.28046-2e-3 -0.50588-0.23213-0.50341-0.51259 1e-3 -0.1598 0.0783-0.31009 0.20708-0.40463l2.8998-2.1167c1.3942-1.0209 3.0769-1.572 4.8048-1.5734h3.4749c1.7268 2e-3 3.4082 0.55281 4.8013 1.5734l2.9034 2.1167c0.22613 0.16616 0.27446 0.48401 0.1083 0.71014-0.0956 0.12982-0.24694 0.20673-0.40816 0.20708" fill="#333"/>
  <path d="m157.99 121.75h-126.06v4.2333h126.06z" fill="#333"/>
 </g>
</svg>
