<?xml version="1.0" encoding="UTF-8"?>
<!-- Created with Inkscape (http://www.inkscape.org/) -->
<svg width="153.46mm" height="180.77mm" version="1.1" viewBox="0 0 153.46 180.77" xmlns="http://www.w3.org/2000/svg" xmlns:cc="http://creativecommons.org/ns#" xmlns:dc="http://purl.org/dc/elements/1.1/" xmlns:rdf="http://www.w3.org/1999/02/22-rdf-syntax-ns#">
 <metadata>
  <rdf:RDF>
   <cc:Work rdf:about="">
    <dc:format>image/svg+xml</dc:format>
    <dc:type rdf:resource="http://purl.org/dc/dcmitype/StillImage"/>
    <dc:title/>
   </cc:Work>
  </rdf:RDF>
 </metadata>
 <g transform="translate(82.777 -172.6)">
  <g>
   <path d="m70.682 349.14h-153.46v4.2333h153.46z" fill="#333"/>
   <path d="m46.981 178.76h-95.897l7.4517 130.6h95.892z" fill="#263238"/>
   <path d="m48.844 178.76h-95.897l7.4517 130.6h95.897z" fill="#4d4d4d"/>
  </g>
  <g transform="matrix(.35278 0 0 -.35278 42.238 183.15)">
   <path d="m0 0h-240.68l17.255-335.1h246.93z" fill="#1a1a1a"/>
  </g>
  <g>
   <path d="m-42.668 183.15c6.3101 39.407 1.9823 78.814 8.303 118.22h87.102c-6.3101-39.402-1.9826-78.809-8.303-118.22z" fill="#fff"/>
   <path d="m-24.911 217.11c-4.5424-0.029-8.2479 3.6308-8.2762 8.1732-0.0011 0.1524 0.0021 0.3044 0.01 0.4564 0.18803 4.7908 4.1053 8.5891 8.8995 8.6297 4.585 0.038 8.3333-3.6481 8.3711-8.2338 0.0011-0.132-0.0011-0.2639-6e-3 -0.3959-0.23142-4.8097-4.1829-8.5993-8.9983-8.6296m0.0519 1.4686c3.9945 0.032 7.2647 3.1859 7.4415 7.1766 0.15769 3.7627-2.7644 6.9409-6.5271 7.0986-0.11783 0-0.23601 0.01-0.35384 0.01-3.9709-0.033-7.2164-3.1778-7.3741-7.1455-0.0808-1.8627 0.59937-3.6777 1.8838-5.0285 1.2887-1.3391 3.0713-2.0895 4.9297-2.0757" fill="#e1ede6"/>
   <path d="m23.302 283.31h-27.503c-0.79974-0.014-1.4587 0.6237-1.4721 1.4231-0.0011 0.062 0.0021 0.1238 9e-3 0.1856 0.10336 0.9048 0.85901 1.5938 1.7695 1.6139h27.503c0.79375 0.015 1.4489-0.617 1.4637-1.4107 1e-3 -0.068-2e-3 -0.1359-0.0106-0.2032-0.10124-0.901-0.85301-1.5882-1.7593-1.6087" fill="#e0e0e0"/>
   <path d="m38.014 276.54h-42.77c-0.81103-0.015-1.4806 0.6301-1.4958 1.4407-0.0011 0.056 0.0011 0.1122 6e-3 0.168 0.0773 0.9034 0.82656 1.6012 1.7332 1.6139h42.749c0.81068 0.023 1.4866-0.6152 1.5099-1.4259 2e-3 -0.057 0-0.115-5e-3 -0.1725-0.0695-0.9067-0.8188-1.6108-1.7279-1.6242" fill="#e0e0e0"/>
   <path d="m-23.982 245c-4.6112-0.029-8.3725 3.6869-8.4007 8.298-7.94e-4 0.1105 7.94e-4 0.2212 5e-3 0.3316 0.1912 4.8045 4.1278 8.6082 8.9359 8.635 4.5854 0.018 8.3174-3.6844 8.3351-8.2702 7.94e-4 -0.1217-0.0011-0.243-6e-3 -0.3648-0.16157-4.7903-4.0756-8.5989-8.8685-8.6296m0 1.5049c3.9673 0.028 7.2065 3.1803 7.3427 7.1456 0.0709 1.8665-0.62054 3.6819-1.9149 5.0285-1.2954 1.3416-3.0854 2.0923-4.9505 2.0757-3.9758-0.027-7.2288-3.1729-7.3893-7.1459-0.12912-3.792 2.8406-6.9709 6.6329-7.1h0.27905" fill="#e1ede6"/>
  </g>
  <g fill="#e0e0e0">
   <path d="m8.0357 223.93h-14.712c-0.89782-0.01-1.6323-0.7168-1.6708-1.614-0.0289-0.8593 0.64452-1.579 1.5039-1.6076 0.01759-7.9e-4 0.0353 0 0.0526 0h14.707c0.89747 0.01 1.6344 0.7122 1.6813 1.6086 0.0314 0.8594-0.63959 1.5815-1.4986 1.6129-0.02119 8e-4 -0.0423 0-0.0635 0"/>
   <path d="m25.015 223.93h-9.9635c-0.89853-0.01-1.6348-0.7161-1.6761-1.614-0.0286-0.8593 0.64488-1.579 1.5042-1.6076 0.0173-7.9e-4 0.0349 0 0.0526 0h9.9684c0.89711 0.01 1.6323 0.7129 1.6764 1.6086 0.0314 0.8594-0.63959 1.5815-1.4986 1.6129-0.0212 8e-4 -0.0423 0-0.0635 0"/>
   <path d="m33.048 230.7h-39.49c-0.89782 0-1.6323-0.7165-1.6658-1.614-0.0286-0.8593 0.64487-1.579 1.5042-1.6076 0.0176-7.9e-4 0.0353 0 0.0526 0h39.485c0.895 0 1.6274 0.7144 1.6605 1.6086 0.0318 0.8594-0.63923 1.5815-1.4986 1.6129-0.0159 8e-4 -0.0318 0-0.0476 0"/>
  </g>
  <g>
   <path d="m-22.929 272.91c-4.3554-0.085-7.9551 3.3761-8.0405 7.7318-6e-3 0.2995 5e-3 0.5994 0.0335 0.8978 0.3997 4.7636 4.7223 8.6297 9.4858 8.6297 4.7639 0 8.1785-3.8661 7.784-8.6297-0.42651-4.82-4.4196-8.5421-9.2576-8.6296zm0.0727 1.4997c4.0079 0.079 7.3159 3.1584 7.68 7.1508 0.18839 1.8263-0.39687 3.648-1.6136 5.0232-1.228 1.3522-2.9792 2.1085-4.8055 2.0757-4.04-0.066-7.3992-3.1288-7.8356-7.1455-0.18027-1.8412 0.43568-3.671 1.6916-5.0285 1.2636-1.348 3.036-2.1011 4.8832-2.0757" fill="#e1ede6"/>
   <path d="m39.794 255.4h-45.567c-0.85972-5.3e-4 -1.5572 0.696-1.5575 1.5557 0 0.018 2.65e-4 0.035 7.94e-4 0.053 0.0388 0.8939 0.77117 1.6012 1.6658 1.6086h45.588c0.85972 5.3e-4 1.5572-0.6964 1.5575-1.5561 0-0.017-2.6e-4 -0.035-7.9e-4 -0.053-0.0339-0.90459-0.7814-1.6179-1.6866-1.6087" fill="#e0e0e0"/>
   <path d="m28.995 248.62h-34.965c-0.85972-7.9e-4 -1.5572 0.696-1.5579 1.5557 0 0.019 2.64e-4 0.039 0.0011 0.058 0.0307 0.8932 0.76129 1.6033 1.6556 1.6086h34.97c0.85971 5.3e-4 1.5572-0.6964 1.5578-1.5561 0-0.018-2.6e-4 -0.035-1e-3 -0.052-0.0254-0.8989-0.76129-1.6144-1.6605-1.614" fill="#e0e0e0"/>
  </g>
  <g fill="#006837">
   <path d="m-24.07 230.8-0.61242-1.0068c-1.3441-2.195-4.1511-4.1515-5.1163-4.7272l0.72637-1.287c1.9061 1.1536 3.6043 2.6201 5.0232 4.3381 2.2052-2.963 5.4278-6.0092 9.7921-9.2992l0.93909 1.2146c-4.6701 3.513-7.9809 6.7458-10.103 9.8231-0.21273 0.3165-0.43074 0.6329-0.64876 0.9444"/>
   <path d="m-23.292 258.71c-0.20249-0.3373-0.40993-0.6749-0.61736-1.0068-1.3494-2.195-4.1515-4.1515-5.1065-4.7325l0.73695-1.287c1.8962 1.1568 3.5853 2.6233 4.9971 4.3381 2.2109-2.9577 5.4592-6.0092 9.8908-9.2988l0.91863 1.2139c-4.7329 3.5133-8.0641 6.7461-10.176 9.8234z"/>
   <path d="m-21.512 286.7-0.68509-1.0068c-1.4944-2.195-4.39-4.1515-5.3862-4.7272l0.67452-1.287c1.9607 1.1621 3.7274 2.624 5.2359 4.3328 2.0341-2.9577 5.1269-6.0088 9.4238-9.2939l0.97049 1.2146c-4.5875 3.513-7.7375 6.7458-9.6524 9.8231z"/>
  </g>
  <g>
   <path d="m0.87447 178.76c-1.2838-0.026-2.335-1.0283-2.4232-2.3093-0.0833-1.1892 0.81351-2.2207 2.0027-2.304 0.0589 0 0.11783-0.01 0.17674-0.01 1.2926 0.013 2.3573 1.0196 2.444 2.3093 0.0833 1.1896-0.81315 2.2211-2.0024 2.3044-0.066 0-0.13194 0.01-0.19791 0m27.368 4.7272c-1.6192-3.4092-5.3968-5.6666-9.4703-5.6666h-8.303c-1.1603 0.052-2.2592-0.5229-2.8801-1.5046-1.1571-2.1693-3.9176-3.7155-7.052-3.7155-3.1344 0-5.7083 1.5568-6.6216 3.7155-0.37853 0.9133-1.4633 1.5046-2.7086 1.5046h-8.303c-4.0735 0-7.5971 2.2574-8.8216 5.6666-0.0455 0.1193-0.0631 0.247-0.0519 0.3736 0.0275 0.5532 0.48437 0.9867 1.0379 0.986h52.349c0.51294 0 0.92992-0.4134 0.93098-0.9267 2.6e-4 -0.1507-0.036-0.2992-0.10583-0.4329" fill="#333"/>
   <path d="m-59.433 344.88c-0.53481 0.066-1.0534 0.2275-1.5307 0.4773 0.69532 0.099 1.6605 0.093 1.868-0.1503 0-0.031 0.0519-0.089 0-0.2025-0.0328-0.065-0.0942-0.1111-0.16616-0.1245-0.0564-0.01-0.1143-0.01-0.1711 0m-1.8267 0.6329c-0.0349-0.01-0.0607-0.037-0.0621-0.073-6e-3 -0.039 0.0155-0.077 0.0519-0.093 0.0466-0.036 1.4633-0.7941 2.0757-0.6227 0.11642 0.026 0.21414 0.1044 0.26458 0.2127 0.0681 0.1267 0.054 0.2819-0.0363 0.3945-0.33585 0.2335-0.74613 0.3351-1.1522 0.285-0.38277 0-0.76447-0.036-1.1416-0.1037" fill="#18530d"/>
   <path d="m-60.154 343.96c-0.11747 0-0.23283 0.033-0.32702 0.1037-0.31856 0.3232-0.53975 0.7296-0.63818 1.173 0.50341-0.2805 1.1832-0.9292 1.1832-1.1885 0-0.021-5e-3 -0.099-0.16616-0.099h-0.0519zm-1.1885 1.536c-0.0127-0.026-0.0127-0.057 0-0.083 0.10654-0.5521 0.36971-1.0619 0.75777-1.4686 0.14711-0.1161 0.33232-0.1718 0.51893-0.1556 0.24907 0.026 0.31151 0.1503 0.31151 0.254 0.0205 0.4255-0.98602 1.2559-1.4686 1.4633h-0.0363c-0.0279 0.011-0.0589 0.01-0.0833-0.01" fill="#18530d"/>
   <path d="m-64.077 336.59h3.8142l-1.3649 8.8321h-3.8142z" fill="#ffb573"/>
   <path d="m-60.684 345.28c2.3975 1.5879 2.7347 1.6609 5.6459 2.3093 0.61771 0.1453 0 1.7279-1.5568 1.7279-2.5894 0-2.3922-0.1193-4.5978-0.1193-1.8888 0-4.0682 0.1091-5.5732 0.1091-0.0452 0-0.09-0.01-0.13335-0.024-0.2734-0.086-0.4251-0.3778-0.33867-0.6512l1.131-3.3884c0.0522-0.1517 0.19262-0.2551 0.35313-0.2593h4.1511c0.32949 0 0.65017 0.1051 0.91863 0.2956" fill="#263238"/>
  </g>
  <g transform="matrix(.35278 0 0 -.35278 -64.077 336.6)">
   <path d="m0 0-2.001-12.9h10.812l2.001 12.9z" fill="#1a1a1a"/>
  </g>
  <g>
   <path d="m-66.848 250.73c-1.095 1.4633 0.46179 3.6012 0.46179 3.6012l3.9751-1.4062-2.5947-2.6204z" fill="#ffb573"/>
   <path d="m-62.422 252.93-3.9751 1.4062 0.88759 2.8388 3.9698-0.5814z" fill="#ffb573"/>
   <path d="m-60.222 221.21c-0.25435 0.5034-0.51364 1.1102-0.77329 1.6916-0.25929 0.581-0.50835 1.173-0.74718 1.7695-0.48789 1.1832-0.94968 2.3767-1.3649 3.5754-0.41487 1.1987-0.77823 2.3975-1.1 3.5909l-0.22331 0.8926-0.19191 0.8872c-0.0674 0.296-0.10901 0.5867-0.15557 0.8774-0.0526 0.2691-0.0907 0.5411-0.1143 0.8145l-0.0363 0.3426v1.2971c0 0.6072 0.0363 1.2506 0.0677 1.8839 0.0723 1.2869 0.20214 2.5996 0.32174 3.9179 0.24906 2.636 0.56021 5.3139 0.86113 7.9499l-4.7272 0.9341c-0.72637-2.6726-1.3286-5.3245-1.8785-8.038-0.26458-1.3808-0.50341-2.7506-0.71084-4.1519-0.0935-0.7108-0.19192-1.4114-0.25965-2.1586l-0.05715-0.5549-0.03105-0.5867v-1.2714c0-0.4773 0.05186-0.8199 0.08326-1.1984 0.03104-0.3789 0.06738-0.7631 0.12453-1.1317l0.16087-1.1102 0.1972-1.0897c0.27411-1.4263 0.62054-2.8381 1.0379-4.2295 0.40993-1.3751 0.8509-2.7347 1.3437-4.0682 0.25965-0.6643 0.50871-1.3131 0.77859-1.9876 0.26987-0.6745 0.53975-1.2922 0.877-2.0186z" fill="#263238"/>
   <path d="m-62.246 248.45s0.17639 29.906-0.62794 42.879c-0.73696 11.899-3.0512 48.934-3.0512 48.934h6.4555s6.5176-38.914 8.3026-51.005c1.7124-11.624 2.3456-40.808 2.3456-40.808z" fill="#006837"/>
   <path d="m-66.381 337.98-0.0572 2.3922h7.8567s0.69533-2.6829 0.66428-2.6829z" fill="#00562b"/>
   <path d="m-46.947 201.7c-0.21167 0.013-0.39934-0.2385-0.41945-0.5616-0.01979-0.3235 0.13582-0.5959 0.34748-0.6089 0.21167-0.013 0.39935 0.2381 0.4191 0.5616 0.02011 0.3232-0.13546 0.5958-0.34713 0.6089" fill="#263238"/>
   <path d="m-47.098 204.75c0.52811 0.1365 1.0894 0.03 1.5307-0.2907-0.66745-0.8428-1.2188-1.7713-1.6397-2.7605z" fill="#f3b37a"/>
   <path d="m-48.733 199.25c-0.0614-0.084-0.0452-0.2007 0.0363-0.2646 0.48154-0.3697 1.1144-0.4783 1.6916-0.2907 0.10054 0.034 0.15381 0.1436 0.11959 0.2438h-0.0021c-0.0377 0.096-0.1464 0.1432-0.24236 0.1051-0.45825-0.1404-0.95673-0.047-1.3335 0.2491-0.0346 0.02-0.0741 0.031-0.1143 0.031-0.061-2.6e-4 -0.11853-0.029-0.15557-0.078" fill="#263238"/>
   <path d="m-51.986 209.22c-0.46708 2.1689-0.44097 4.4732 2.6726 5.2151 0 0 3.0875 2.8282-2.6208 2.8282-5.1841 0-6.0456-2.8282-6.0456-2.8282 1.8891-1.8577 1.1624-6.9691 0.51893-9.761z" fill="#ffb573"/>
   <path d="m-47.218 215.99c0.35384-1.3885-0.48472-2.8011-1.8732-3.1549-2.4959-0.8407-9.6104-0.3842-10.898 0.067-1.1779 0.4046-0.56021 1.7124 0 2.8487z" fill="#006837"/>
   <path d="m-60.917 221.27c-0.72849 3.1792-1.6877 6.301-2.8695 9.3408l-6.6164-2.0757s1.6708-11.489 4.9555-13.004c3.3627-1.5463 5.5474 0.9443 4.5304 5.7393" fill="#263238"/>
  </g>
  <g fill="#ffb573">
   <path d="m-24.177 235.95c2.7245 0.8093 5.1894-1.1677 5.1894-1.1677l-2.7453-3.9956-3.0512 2.6258z"/>
   <path d="m-21.733 230.79 2.745 3.9959 1.6969-1.3183-0.42015-3.949z"/>
   <path d="m-57.768 197.76c1.1451-2.6554 4.2259-3.8798 6.8813-2.7347 3.9592 1.5776 4.6859 7.4619 3.9592 11.022-0.19332 1.0135-0.68439 1.9463-1.4104 2.679-2.0168 2.0362-5.3022 2.0518-7.3385 0.035-2.0758-2.0345-2.1018-4.3695-2.4857-8.334-0.10372-0.9085 0.0321-1.8281 0.39405-2.6674"/>
  </g>
  <g fill="#3a210c">
   <path d="m-52.246 208.12c-0.11112 0.2155-0.35666 0.3256-0.59161 0.2646-0.80962-0.218-2.6204-0.6227-3.6325-0.1503-0.0187 0.01-0.0378 0.016-0.0572 0.022-0.2727 0.089-0.5655-0.061-0.6537-0.3337-0.4826-1.4894-2.1121-3.4248-4.5561-6.2269-2.9319-3.3471-0.44627-7.9294 1.0379-7.4104 0.3683-2.854 4.4577-2.7503 7.2647-1.7749 2.8074 0.9758 3.695-0.1037 3.4145-0.6226 3.0515 1.0379 2.9009 3.3055 2.2729 4.1931-0.62794 0.8872-1.9459 0.9289-3.4664 1.2298 1.4633 0.6071 1.5205 1.645 1.173 4.385-0.26494 2.2624-1.6813 5.3446-2.2056 6.4241"/>
   <path d="m-63.662 194.2c2.3093-1.2612 3.513 0.4357 3.513 0.4357-1.1377-0.3436-2.3255-0.4911-3.513-0.4357"/>
   <path d="m-60.715 192.01c-1.3078 1.9562 0.3683 2.994 0.3683 2.994-0.32314-0.9631-0.44838-1.9812-0.3683-2.994"/>
  </g>
  <path d="m-50.331 200.22c1.1158 0.4671 1.5826 2.2211 1.5568 3.259-0.02609 1.1673-0.85619 1.8111-1.8161 0.9027-0.72214-0.6886-1.2086-1.5875-1.391-2.5686-0.19721-1.1729 0.53445-2.0602 1.6503-1.5931" fill="#f3b37a"/>
  <g transform="matrix(.35278 0 0 -.35278 -52.542 298.12)">
   <path d="M 0,0 C 1.618,10.135 2.971,18.872 3.898,25.109 6.31,41.481 7.973,70.136 9.032,94.818 -10.385,81.197 -6.502,35.479 0,0" fill="#1a1a1a"/>
  </g>
  <g>
   <path d="m-45.92 344.88c-0.51435 0.061-1.0118 0.2237-1.4633 0.4773 0.71614 0.099 1.676 0.093 1.8471-0.1503 0.0208-0.031 0.0416-0.089-0.0258-0.2025-0.0406-0.065-0.10654-0.11-0.18168-0.1245-0.0586-0.01-0.11783-0.01-0.17639 0zm-1.7279 0.6329c-0.0367-0.01-0.0653-0.036-0.0727-0.073-0.0123-0.036 3e-3 -0.075 0.0363-0.093 0.0572-0.036 1.3645-0.7941 2.0031-0.6227 0.121 0.033 0.22613 0.1083 0.29563 0.2127 0.0804 0.1193 0.0804 0.2752 0 0.3945-0.15029 0.2176-0.62265 0.285-1.1106 0.285-0.38629 0-0.77152-0.037-1.1518-0.1037" fill="#18530d"/>
   <path d="m-46.776 343.96c-0.11289 0-0.22296 0.034-0.3115 0.1037-0.27164 0.3337-0.43286 0.7433-0.46179 1.173 0.46179-0.2805 1.0587-0.9292 1.0068-1.1885-5e-3 -0.021-0.01551-0.099-0.18168-0.099h-0.0519zm-0.92886 1.536c-0.0254-0.02-0.0409-0.051-0.0416-0.083 0-0.042 0.0469-1.0693 0.51893-1.4686 0.14323-0.1228 0.33197-0.1792 0.51894-0.1556 0.24906 0.026 0.34255 0.1503 0.34255 0.254 0.0882 0.4255-0.79904 1.2559-1.2506 1.4633h-0.0363c-0.01799 0-0.036 0-0.0519-0.01" fill="#18530d"/>
   <path d="m-51.779 336.59h3.8142l-0.0727 8.8321h-3.8089z" fill="#ffb573"/>
   <path d="m-47.129 345.28c2.631 1.5879 5.0698 1.6609 8.0744 2.3093 0.65899 0.1453 0.27516 1.7279-1.2816 1.7279-2.5894 0-4.499-0.1193-6.7098-0.1193-1.8835 0-4.0527 0.1091-5.5524 0.1091-0.036 7.9e-4 -0.072 0-0.10724-0.01-0.31327-0.055-0.52317-0.3528-0.46884-0.6664l0.63853-3.3884c0.0254-0.1514 0.15769-0.2614 0.31115-0.2593h4.1515c0.33585 0.011 0.66217 0.1132 0.94439 0.2956" fill="#263238"/>
  </g>
  <g transform="matrix(.35278 0 0 -.35278 -51.784 336.6)">
   <path d="m0 0-0.088-12.9h10.811l0.089 12.9z" fill="#1a1a1a"/>
  </g>
  <g>
   <path d="m-56.636 248.46s3.7465 28.079 4.5198 41.052c0.72637 11.863-0.95462 50.751-0.95462 50.751h6.4551s6.1235-39.594 6.1235-51.685c0.031-11.624-1.5258-40.128-1.5258-40.128z" fill="#006837"/>
   <path d="m-53.886 337.98 0.30092 2.3922h7.8567s0.29563-2.6829 0.26459-2.6829z" fill="#00562b"/>
   <path d="m-49.309 214.44c-2.8864-0.1662-5.7799-0.1662-8.666 0-2.2825 0.139-4.5533 0.4269-6.798 0.8615 3.5391 14.748 1.0587 41.867 1.3077 44.98h23.725c2.8279-28.37-3.6689-44.783-3.6689-44.783-1.9368-0.5041-3.9091-0.8579-5.9002-1.0583" fill="#263238"/>
  </g>
  <g transform="matrix(.35278 0 0 -.35278 -45.406 224.39)">
   <path d="m0 0s4.472-29.905 17.534-41.908c-0.53 9.252-1.353 17.652-2.354 25.006z" fill="#1a1a1a"/>
  </g>
  <path d="m-39.024 220.87c0.7941 2.2885 1.6552 4.6549 2.5428 6.9226 0.88724 2.2676 1.8006 4.5459 2.7866 6.7461l0.3736 0.8146 0.18661 0.4099c0.0469 0.1037 0.18698 0.3736 0.078 0.1919-0.13194-0.1933-0.31045-0.3503-0.51894-0.4565-0.17109-0.088-0.26987-0.057-0.23883-0.057 0.27376 0.058 0.55669 0.058 0.83044 0 0.47978-0.071 0.95321-0.1785 1.4168-0.3217 2.183-0.7112 4.294-1.6267 6.3048-2.7348l2.8021 4.2969c-0.59654 0.4152-1.1 0.8456-1.6552 1.1828-0.55527 0.3373-1.1158 0.7006-1.7021 1.0379-1.1931 0.7122-2.4366 1.3367-3.7208 1.8683-0.71508 0.291-1.4506 0.5306-2.2003 0.7161-0.94792 0.2438-1.9311 0.3228-2.9058 0.2336-0.70944-0.073-1.3981-0.2805-2.0292-0.6124-0.76306-0.4117-1.4079-1.0118-1.8732-1.7438-0.26988-0.4512-0.25929-0.4618-0.35807-0.6382l-0.23848-0.436-0.47237-0.8665c-1.209-2.3248-2.2832-4.6443-3.321-6.9952-1.0379-2.3505-1.9823-4.6909-2.9164-7.1194z" fill="#263238"/>
  <path d="m-38.977 219.77c1.7177 5.1685 3.0201 9.4597 3.0201 9.4597l-5.0959 5.0493s-8.5933-13.663-7.3791-17.057c1.1571-3.2431 7.7632-2.5323 9.4548 2.5481" fill="#263238"/>
  <g fill="#fbb03b">
   <path d="m-31.514 192.53 1.5497 4.3074 4.5755-0.1425-3.6177 2.8046 1.5498 4.3077-3.7857-2.5742-3.6177 2.8053 1.2781-4.3959-3.7857-2.5739 4.5755-0.1429z"/>
   <path d="m-14.904 192.01 1.5498 4.3074 4.5755-0.1429-3.6177 2.805 1.5498 4.3077-3.7857-2.5742-3.6177 2.8053 1.2781-4.3959-3.7857-2.5739 4.5755-0.1429z"/>
   <path d="m1.7053 191.49 1.5498 4.3074 4.5755-0.1425-3.6177 2.8049 1.5498 4.3074-3.7857-2.5738-3.6177 2.8049 1.2781-4.3956-3.7857-2.5742 4.5755-0.1429z"/>
   <path d="m18.315 190.97 1.5498 4.3074 4.5755-0.1425-3.6177 2.8046 1.5498 4.3077-3.7857-2.5742-3.6177 2.8053 1.2781-4.3959-3.7857-2.5739 4.5755-0.1429z"/>
   <path d="m34.925 190.45 1.5498 4.3074 4.5755-0.1429-3.6178 2.805 1.5498 4.3077-3.7857-2.5742-3.6177 2.8053 1.2781-4.3959-3.7857-2.5739 4.5755-0.1429z"/>
  </g>
 </g>
</svg>
