<?xml version="1.0" encoding="UTF-8" standalone="no"?>
<!-- Created with Inkscape (http://www.inkscape.org/) -->

<svg
   xmlns:dc="http://purl.org/dc/elements/1.1/"
   xmlns:cc="http://creativecommons.org/ns#"
   xmlns:rdf="http://www.w3.org/1999/02/22-rdf-syntax-ns#"
   xmlns:svg="http://www.w3.org/2000/svg"
   xmlns="http://www.w3.org/2000/svg"
   xmlns:sodipodi="http://sodipodi.sourceforge.net/DTD/sodipodi-0.dtd"
   xmlns:inkscape="http://www.inkscape.org/namespaces/inkscape"
   width="115.66071mm"
   height="94.493973mm"
   viewBox="0 0 115.66071 94.493971"
   version="1.1"
   id="svg3879"
   inkscape:version="0.92.5 (2060ec1f9f, 2020-04-08)"
   sodipodi:docname="master.svg"
   inkscape:export-filename="/home/duncan/Work/help-service/images/master.png"
   inkscape:export-xdpi="96"
   inkscape:export-ydpi="96">
  <defs
     id="defs3873" />
  <sodipodi:namedview
     id="base"
     pagecolor="#ffffff"
     bordercolor="#666666"
     borderopacity="1.0"
     inkscape:pageopacity="0.0"
     inkscape:pageshadow="2"
     inkscape:zoom="1.4"
     inkscape:cx="174.97093"
     inkscape:cy="178.48653"
     inkscape:document-units="mm"
     inkscape:current-layer="layer1"
     showgrid="false"
     fit-margin-bottom="0.1"
     fit-margin-top="0"
     fit-margin-left="0"
     fit-margin-right="0"
     inkscape:window-width="1680"
     inkscape:window-height="997"
     inkscape:window-x="0"
     inkscape:window-y="0"
     inkscape:window-maximized="1" />
  <metadata
     id="metadata3876">
    <rdf:RDF>
      <cc:Work
         rdf:about="">
        <dc:format>image/svg+xml</dc:format>
        <dc:type
           rdf:resource="http://purl.org/dc/dcmitype/StillImage" />
        <dc:title></dc:title>
      </cc:Work>
    </rdf:RDF>
  </metadata>
  <g
     inkscape:label="Layer 1"
     inkscape:groupmode="layer"
     id="layer1"
     transform="translate(20.032737,-149.26135)">
    <path
       d="m 95.627973,234.65839 h -115.66071 v 3.77933 h 115.66071 z"
       style="fill:#333333;fill-opacity:1;fill-rule:nonzero;stroke:none;stroke-width:0.22038358"
       id="path12948"
       inkscape:connector-curvature="0" />
    <path
       inkscape:connector-curvature="0"
       id="path12952"
       style="fill:#e1ede6;fill-opacity:1;fill-rule:nonzero;stroke:none;stroke-width:0.31059942"
       d="m 63.440215,157.25666 v 52.80798 c -0.02883,1.29789 -1.03504,2.34886 -2.296747,2.3983 h -73.911201 c -1.227704,0 -2.14114,-1.13348 -2.14114,-2.3983 v -52.80798 c -0.03551,-1.21096 0.890764,-2.22194 2.068543,-2.25815 0.02423,-9e-4 0.04836,-9e-4 0.07259,-9e-4 h 73.911199 c 1.235372,-0.0138 2.255086,0.98955 2.296747,2.25909" />
    <path
       d="m 63.440215,163.83764 v 46.22691 c -0.02883,1.2982 -1.03504,2.34885 -2.296747,2.3983 h -73.911201 c -1.227704,0 -2.14114,-1.13348 -2.14114,-2.3983 v -17.99277 c 6.5024443,-12.85761 22.0040928,-14.94097 40.15199,-7.42324 25.691816,10.64292 36.648064,-3.80201 38.197098,-20.8109"
       style="fill:#006837;fill-opacity:1;fill-rule:nonzero;stroke:none;stroke-width:0.31059942"
       id="path12962"
       inkscape:connector-curvature="0" />
    <path
       d="M 51.368333,213.55716 H 13.873006 c -0.704827,0 -1.276101,-0.58737 -1.276101,-1.31206 0,-0.72437 0.571274,-1.31206 1.276101,-1.31206 h 37.495327 c 0.704828,0 1.276104,0.58769 1.276104,1.31206 0,0.72469 -0.571276,1.31206 -1.276104,1.31206"
       style="fill:#1a1a1a;fill-opacity:1;fill-rule:nonzero;stroke:none;stroke-width:0.31059942"
       id="path12978"
       inkscape:connector-curvature="0" />
    <path
       inkscape:connector-curvature="0"
       id="path12988"
       style="fill:#1b530b;fill-opacity:1;fill-rule:nonzero;stroke:none;stroke-width:0.31059942"
       d="m 13.872912,213.29478 c -0.563921,0 -1.020948,-0.4699 -1.020948,-1.04971 0,-0.5795 0.457027,-1.04939 1.020948,-1.04939 H 36.03537 c 0.563618,0 1.020948,0.46989 1.020948,1.04939 0,0.57981 -0.45733,1.04971 -1.020948,1.04971 z" />
    <path
       d="m 13.872912,213.29478 c -0.563921,0 -1.020948,-0.4699 -1.020948,-1.04971 0,-0.5795 0.457027,-1.04939 1.020948,-1.04939 H 36.03537 c 0.563618,0 1.020948,0.46989 1.020948,1.04939 0,0.57981 -0.45733,1.04971 -1.020948,1.04971 z"
       style="fill:#ffffff;fill-opacity:1;fill-rule:nonzero;stroke:none;stroke-width:0.31059942"
       id="path12998"
       inkscape:connector-curvature="0" />
    <path
       inkscape:connector-curvature="0"
       id="path13008"
       style="fill:#263238;fill-opacity:1;fill-rule:nonzero;stroke:none;stroke-width:0.31059942"
       d="m 72.872556,214.62774 c -2.086307,4.59599 -4.830885,5.08635 -4.830885,5.08635 l -3.281235,-3.95098 c 0,0 2.352492,-1.45157 2.901409,-3.22534 0.548917,-1.77377 -0.470502,-13.30419 2.453265,-15.72013 0,0 4.84345,13.21411 2.757446,17.8101" />
    <path
       d="m 72.872556,214.62774 c -2.086307,4.59599 -4.830885,5.08635 -4.830885,5.08635 l -3.281235,-3.95098 c 0,0 2.352492,-1.45157 2.901409,-3.22534 0.548917,-1.77377 -0.470502,-13.30419 2.453265,-15.72013 0,0 4.84345,13.21411 2.757446,17.8101"
       style="fill:#1a1a1a;fill-opacity:1;fill-rule:nonzero;stroke:none;stroke-width:0.31059942"
       id="path13018"
       inkscape:connector-curvature="0" />
    <path
       inkscape:connector-curvature="0"
       id="path13028"
       style="fill:#006837;fill-opacity:1;fill-rule:nonzero;stroke:none;stroke-width:0.31059942"
       d="m 88.312389,223.20702 c 3.111543,7.23427 -1.198305,14.87167 -11.748078,14.48807 -10.549157,-0.38392 -29.609258,-6.42486 -26.980467,-14.00747 2.628782,-7.5826 23.64624,-1.55456 23.64624,-1.55456 z" />
    <path
       d="m 88.312389,223.20702 c 3.111543,7.23427 -1.198305,14.87167 -11.748078,14.48807 -10.549157,-0.38392 -29.609258,-6.42486 -26.980467,-14.00747 2.628782,-7.5826 23.64624,-1.55456 23.64624,-1.55456 z"
       style="fill:#1a1a1a;fill-opacity:1;fill-rule:nonzero;stroke:none;stroke-width:0.31059942"
       id="path13038"
       inkscape:connector-curvature="0" />
    <path
       inkscape:connector-curvature="0"
       id="path13048"
       style="fill:#1b530b;fill-opacity:1;fill-rule:nonzero;stroke:none;stroke-width:0.31059942"
       d="m 52.526574,234.20201 c -0.103535,-0.34738 -0.268328,-0.67209 -0.486426,-0.95806 -0.02266,-0.0227 -0.05088,-0.0394 -0.08145,-0.0482 -0.02909,-0.0126 -0.06278,-0.004 -0.08145,0.0227 -0.07233,0.0548 -0.106905,0.14802 -0.08792,0.23842 0.154695,0.33289 0.420879,0.59745 0.749554,0.74515 z m -0.542787,-0.23212 c -0.157143,-0.12377 -0.272617,-0.29541 -0.329595,-0.49036 -0.02362,-0.13134 0.02327,-0.2655 0.122525,-0.35148 0.05574,-0.0573 0.136001,-0.0819 0.213192,-0.0645 0.35165,0.10961 0.702692,1.15459 0.737302,1.27395 0.01042,0.0243 0.0026,0.0529 -0.01867,0.0678 -0.02388,0.0161 -0.05479,0.0161 -0.07841,0 -0.228509,-0.12377 -0.444766,-0.26927 -0.646323,-0.43526" />
    <path
       inkscape:connector-curvature="0"
       id="path13052"
       style="fill:#1b530b;fill-opacity:1;fill-rule:nonzero;stroke:none;stroke-width:0.31059942"
       d="m 52.940585,233.17636 -0.02509,-0.0192 c -0.07537,-0.0548 -0.106904,-0.0196 -0.12222,-0.0196 -0.150701,0.0935 -0.175821,0.69981 -0.0974,1.06105 0.122524,-0.19338 0.366966,-0.59965 0.313662,-0.87082 -0.01007,-0.0583 -0.03855,-0.11181 -0.08145,-0.15149 z m -0.33266,1.22891 v -0.0324 c -0.125277,-0.32249 -0.156831,-1.16749 0.0971,-1.3511 0.08853,-0.0608 0.205846,-0.0501 0.282421,0.0255 0.08731,0.0608 0.14734,0.15496 0.16633,0.26141 0.08179,0.4258 -0.404642,1.06104 -0.438948,1.09002 -0.0165,0.0196 -0.04229,0.0271 -0.06582,0.0196 z" />
    <path
       inkscape:connector-curvature="0"
       id="path13056"
       style="fill:#1b530b;fill-opacity:1;fill-rule:nonzero;stroke:none;stroke-width:0.31059942"
       d="m 73.970382,238.44648 c -0.168475,0.32313 -0.279052,0.67493 -0.326226,1.03869 0.0026,0.0321 0.01007,0.0636 0.02205,0.0932 0.01381,0.0296 0.04315,0.0472 0.07502,0.0453 0.08944,0.0145 0.178886,-0.0258 0.229125,-0.1033 0.123749,-0.34676 0.123749,-0.7272 0,-1.07396 m 0.219626,0.57729 c 0.02449,0.20283 -0.01381,0.40817 -0.109969,0.58706 -0.07415,0.10897 -0.200628,0.16723 -0.329283,0.15149 -0.07875,0.003 -0.152238,-0.0396 -0.19145,-0.1096 -0.172451,-0.33542 0.307541,-1.32245 0.370336,-1.43205 0.0095,-0.0243 0.0343,-0.0388 0.05974,-0.0353 0.02692,0.006 0.04897,0.0271 0.05635,0.0548 0.07259,0.25574 0.120997,0.51808 0.144276,0.78358" />
    <path
       inkscape:connector-curvature="0"
       id="path13060"
       style="fill:#ebb376;fill-opacity:1;fill-rule:nonzero;stroke:none;stroke-width:0.31059942"
       d="m 67.053467,233.6763 4.426244,2.48995 1.813073,1.01916 1.163686,-2.09312 -1.784889,-1.34513 -3.717126,-2.80268 z" />
    <path
       inkscape:connector-curvature="0"
       id="path13064"
       style="fill:#263238;fill-opacity:1;fill-rule:nonzero;stroke:none;stroke-width:0.31059942"
       d="m 72.797171,237.46603 c 0.392086,0.25794 1.207491,0.90294 1.333385,1.74164 0.106296,0.71934 0.128351,2.88678 0.244442,3.75099 0.03734,0.27085 0.197571,0.69666 0.464371,0.69666 0.730868,-0.004 3.080295,-5.69577 2.452962,-7.34073 -0.197571,-0.56123 -1.882302,-1.26104 -1.882302,-1.26104 l -1.210861,-0.60973 c -0.0026,-8.9e-4 -0.0043,-0.003 -0.0069,-0.004 -0.134168,-0.0629 -0.292224,-0.002 -0.353491,0.13574 l -1.122945,2.54476 c -0.05731,0.12031 -0.02301,0.2655 0.08179,0.34517" />
    <path
       inkscape:connector-curvature="0"
       id="path13068"
       style="fill:#1b530b;fill-opacity:1;fill-rule:nonzero;stroke:none;stroke-width:0.31059942"
       d="m 72.988612,238.88192 v 0.0321 c 0.01563,0.1033 0.05331,0.1033 0.07198,0.1033 0.175829,0.0356 0.608647,-0.35147 0.802849,-0.67397 -0.225747,0.0482 -0.680325,0.14519 -0.831025,0.37069 -0.0343,0.0488 -0.05054,0.10802 -0.04715,0.16786 z m 1.050964,-0.62894 v 0.029 c -0.13508,0.31621 -0.693496,0.92908 -1.007158,0.87082 -0.10384,-0.0227 -0.177974,-0.11653 -0.178582,-0.22581 -0.01928,-0.10645 0.0035,-0.21668 0.06252,-0.30645 0.241689,-0.35777 1.022788,-0.4384 1.066593,-0.4384 0.02483,-7.1e-4 0.04776,0.0129 0.05939,0.0353 0.0017,0.012 8.69e-4,0.0243 -0.0026,0.0356" />
    <path
       d="m 67.053467,233.6763 4.426244,2.48995 1.19187,-2.41909 -3.717126,-2.80268 z"
       style="fill:#1a1a1a;fill-opacity:1;fill-rule:nonzero;stroke:none;stroke-width:0.31059942"
       id="path13078"
       inkscape:connector-curvature="0" />
    <path
       inkscape:connector-curvature="0"
       id="path13088"
       style="fill:#1b530b;fill-opacity:1;fill-rule:nonzero;stroke:none;stroke-width:0.31059942"
       d="m 72.574298,233.24732 -1.13551,-1.19017 -2.029634,3.98656 1.223415,0.28062 z" />
    <path
       d="m 72.574298,233.24732 -1.13551,-1.19017 -2.029634,3.98656 1.223415,0.28062 z"
       style="fill:#ffffff;fill-opacity:1;fill-rule:nonzero;stroke:none;stroke-width:0.31059942"
       id="path13098"
       inkscape:connector-curvature="0" />
    <path
       inkscape:connector-curvature="0"
       id="path13108"
       style="fill:#ebb376;fill-opacity:1;fill-rule:nonzero;stroke:none;stroke-width:0.31059942"
       d="m 60.691782,232.46358 -4.824451,1.50953 -1.976339,0.61603 0.636823,2.32209 2.186474,-0.371 4.548465,-0.77068 z" />
    <path
       inkscape:connector-curvature="0"
       id="path13112"
       style="fill:#263238;fill-opacity:1;fill-rule:nonzero;stroke:none;stroke-width:0.31059942"
       d="m 54.038385,234.04076 c -0.445382,0.0998 -1.471227,0.25479 -2.142365,-0.24188 -0.580462,-0.42265 -2.095494,-1.92557 -2.776435,-2.44145 -0.216257,-0.16471 -0.620899,-0.34518 -0.808971,-0.14833 -0.511546,0.53855 1.815835,6.24062 3.38477,6.93759 0.529928,0.23841 2.19566,-0.50989 2.19566,-0.50989 l 1.270286,-0.46108 c 0,0 2.35e-4,0 2.35e-4,0 0.14121,-0.0545 0.212575,-0.21606 0.159583,-0.36125 l -0.9848,-2.60269 c -0.04532,-0.12441 -0.171531,-0.19685 -0.298041,-0.17102" />
    <path
       d="m 60.691782,232.46358 -4.824451,1.50953 0.846958,2.56712 4.548465,-0.77068 z"
       style="fill:#1a1a1a;fill-opacity:1;fill-rule:nonzero;stroke:none;stroke-width:0.31059942"
       id="path13122"
       inkscape:connector-curvature="0" />
    <path
       inkscape:connector-curvature="0"
       id="path13132"
       style="fill:#006837;fill-opacity:1;fill-rule:nonzero;stroke:none;stroke-width:0.31059942"
       d="m 57.354021,236.81772 c 10.207623,-0.89003 21.923835,-2.46727 21.923835,-2.46727 0,0 1.829006,-4.5478 2.308694,-3.20614 0.480297,1.34198 -2.838613,6.17984 -2.838613,6.17984 0,0 4.890615,-0.88689 7.528592,-4.51536 2.637978,-3.62847 2.082939,-10.16293 -4.316578,-10.46938 -6.399213,-0.30644 -25.308613,11.16289 -25.308613,11.16289 z" />
    <path
       inkscape:connector-curvature="0"
       id="path13136"
       style="fill:#1b530b;fill-opacity:1;fill-rule:nonzero;stroke:none;stroke-width:0.31059942"
       d="m 57.131452,236.72739 h 1.618567 l -1.348702,-4.26057 -1.050964,0.72563 z" />
    <path
       d="m 57.131452,236.72739 h 1.618567 l -1.348702,-4.26057 -1.050964,0.72563 z"
       style="fill:#ffffff;fill-opacity:1;fill-rule:nonzero;stroke:none;stroke-width:0.31059942"
       id="path13146"
       inkscape:connector-curvature="0" />
    <path
       inkscape:connector-curvature="0"
       id="path13156"
       style="fill:#263238;fill-opacity:1;fill-rule:nonzero;stroke:none;stroke-width:0.31059942"
       d="m 90.279202,227.58371 c 0.470502,-16.63285 -3.52598,-31.85946 -3.52598,-31.85946 -6.295686,-1.88337 -14.555147,-0.68375 -16.625521,1.09349 2.961138,10.25332 4.049778,20.55799 0.627332,27.33119 z" />
    <path
       inkscape:connector-curvature="0"
       id="path13160"
       style="fill:#ebb376;fill-opacity:1;fill-rule:nonzero;stroke:none;stroke-width:0.31059942"
       d="m 75.57345,196.65324 c 0.122221,-0.0775 0.237704,-0.16597 0.344912,-0.26455 0.523797,-0.46108 1.301831,-1.49977 -0.344912,-2.69939 l 1.979403,-1.99328 1.389442,-1.39647 c 0,0 0.01259,3.92515 3.620025,5.21517 0,0 -1.791018,2.9674 -4.542334,2.9674 -2.751011,0 -2.446536,-1.82888 -2.446536,-1.82888" />
    <path
       d="m 75.563864,193.6892 1.979403,-1.99328 c 0.499903,-0.0835 1.005631,-0.12126 1.511967,-0.11275 0,0 0.238616,5.19595 -3.136968,4.80573 0.523798,-0.46139 1.30184,-1.49976 -0.354402,-2.6997"
       style="fill:#1a1a1a;fill-opacity:1;fill-rule:nonzero;stroke:none;stroke-width:0.31059942"
       id="path13170"
       inkscape:connector-curvature="0" />
    <path
       inkscape:connector-curvature="0"
       id="path13180"
       style="fill:#263238;fill-opacity:1;fill-rule:nonzero;stroke:none;stroke-width:0.31059942"
       d="m 70.868033,186.371 c -0.687063,0.84499 0.02179,3.47698 1.326647,4.63472 2.120614,-2.61561 2.36536,-4.05082 1.088639,-4.59284 -1.116824,-0.4806 -1.728527,-0.88688 -2.415286,-0.0419" />
    <path
       inkscape:connector-curvature="0"
       id="path13184"
       style="fill:#ebb376;fill-opacity:1;fill-rule:nonzero;stroke:none;stroke-width:0.31059942"
       d="m 72.574298,184.87772 c 0.477239,-0.33951 1.023092,-0.5628 1.596512,-0.65351 2.088756,-0.32975 4.042736,1.14387 4.363752,3.2918 0.442014,2.84458 0.840525,4.48638 -0.219625,6.24408 l -0.01867,0.0258 c -1.606011,2.61247 -5.238896,2.09974 -6.493561,-0.5417 -0.155911,-0.33321 -0.292224,-0.67587 -0.408011,-1.02578 -0.808971,-2.42853 -0.934561,-5.82804 1.179619,-7.34072" />
    <path
       inkscape:connector-curvature="0"
       id="path13188"
       style="fill:#263238;fill-opacity:1;fill-rule:nonzero;stroke:none;stroke-width:0.31059942"
       d="m 74.27458,188.88353 c -0.141211,0.0356 -0.207071,0.24503 -0.169396,0.47399 0.03768,0.22897 0.207071,0.38392 0.351346,0.35179 0.144276,-0.0324 0.222691,-0.24534 0.172452,-0.4743 -0.06278,-0.22235 -0.213192,-0.38706 -0.354402,-0.35148" />
    <path
       inkscape:connector-curvature="0"
       id="path13192"
       style="fill:#263238;fill-opacity:1;fill-rule:nonzero;stroke:none;stroke-width:0.31059942"
       d="m 71.752571,189.46728 c -0.144579,0.0321 -0.21656,0.24187 -0.175516,0.47399 0.04072,0.23243 0.20707,0.38392 0.354402,0.35179 0.147037,-0.0324 0.225756,-0.24534 0.175517,-0.47115 -0.05019,-0.22897 -0.210127,-0.38675 -0.354403,-0.35463" />
    <path
       inkscape:connector-curvature="0"
       id="path13196"
       style="fill:#d58745;fill-opacity:1;fill-rule:nonzero;stroke:none;stroke-width:0.31059942"
       d="m 73.434029,191.89591 c 0,0 -0.624268,0.32565 -1.107325,0.0419 0.30662,-0.70012 0.517363,-1.44024 0.627333,-2.19957 z" />
    <path
       inkscape:connector-curvature="0"
       id="path13200"
       style="fill:#263238;fill-opacity:1;fill-rule:nonzero;stroke:none;stroke-width:0.31059942"
       d="m 75.052648,188.21267 c -0.254245,-0.2381 -0.605886,-0.33321 -0.940995,-0.25479 -0.07077,0.0173 -0.142434,-0.0229 -0.16633,-0.0935 -0.01806,-0.0703 0.02266,-0.14236 0.09097,-0.16125 0.421799,-0.0979 0.8635,0.0223 1.182684,0.3225 l 0.0017,0.002 c 0.05088,0.0536 0.04993,0.1392 -0.0017,0.1918 -0.02023,0.0227 -0.04836,0.0365 -0.07875,0.0384 -0.03343,-0.004 -0.06495,-0.0195 -0.0876,-0.045" />
    <path
       inkscape:connector-curvature="0"
       id="path13204"
       style="fill:#263238;fill-opacity:1;fill-rule:nonzero;stroke:none;stroke-width:0.31059942"
       d="m 70.767528,189.20282 h -0.05939 c -6.86e-4,0 -8.68e-4,-2.4e-4 -8.68e-4,-2.4e-4 -0.07077,-0.018 -0.113642,-0.0917 -0.09618,-0.16409 0.08975,-0.43211 0.377377,-0.79272 0.771599,-0.96751 0.0692,-0.0239 0.144589,0.0132 0.1697,0.0837 0.02327,0.0721 -0.01259,0.15023 -0.08179,0.17731 -0.309685,0.14424 -0.533288,0.43179 -0.602213,0.77414 -0.01198,0.0517 -0.05053,0.0926 -0.10047,0.10645 z" />
    <path
       inkscape:connector-curvature="0"
       id="path13208"
       style="fill:#3a210c;fill-opacity:1;fill-rule:nonzero;stroke:none;stroke-width:0.31059942"
       d="m 79.284203,184.85514 c 0.812349,0.71587 0.520732,3.43478 -0.593027,4.78967 -2.496766,-2.232 -2.961138,-3.60926 -1.784888,-4.35441 1.029213,-0.64816 1.565566,-1.15145 2.377915,-0.43526" />
    <path
       inkscape:connector-curvature="0"
       id="path13212"
       style="fill:#ebb376;fill-opacity:1;fill-rule:nonzero;stroke:none;stroke-width:0.31059942"
       d="m 78.785551,188.14492 c -0.853393,0.28376 -1.06965,1.58668 -0.940995,2.39641 0.141211,0.89664 0.890756,1.45787 1.593448,0.81288 0.527774,-0.48156 0.847262,-1.15932 0.887699,-1.88369 0.04715,-0.88688 -0.687063,-1.60936 -1.540152,-1.3256" />
    <path
       inkscape:connector-curvature="0"
       id="path13216"
       style="fill:none;stroke:#263238;stroke-width:0.17300387;stroke-linecap:round;stroke-linejoin:round;stroke-miterlimit:4;stroke-dasharray:none;stroke-opacity:1"
       d="m 73.948232,193.18926 c 1.33645,-0.23874 1.625305,-1.26419 1.625305,-1.26419" />
    <path
       inkscape:connector-curvature="0"
       id="path13220"
       style="fill:none;stroke:#263238;stroke-width:0.17300387;stroke-linecap:round;stroke-linejoin:round;stroke-miterlimit:4;stroke-dasharray:none;stroke-opacity:1"
       d="m 74.111566,188.78999 c 0.519509,0 0.940995,0.43305 0.940995,0.9675 0,0.53447 -0.421486,0.96752 -0.940995,0.96752 -0.519812,0 -0.940994,-0.43305 -0.940994,-0.96752 0,-0.53445 0.421182,-0.9675 0.940994,-0.9675 z" />
    <path
       inkscape:connector-curvature="0"
       id="path13224"
       style="fill:none;stroke:#263238;stroke-width:0.17300387;stroke-linecap:round;stroke-linejoin:round;stroke-miterlimit:4;stroke-dasharray:none;stroke-opacity:1"
       d="m 71.548566,189.33186 c 0.519812,0 0.940995,0.43304 0.940995,0.9675 0,0.53447 -0.421183,0.96752 -0.940995,0.96752 -0.519508,0 -0.940995,-0.43305 -0.940995,-0.96752 0,-0.53446 0.421487,-0.9675 0.940995,-0.9675 z" />
    <path
       inkscape:connector-curvature="0"
       id="path13228"
       style="fill:none;stroke:#263238;stroke-width:0.17300387;stroke-linecap:round;stroke-linejoin:round;stroke-miterlimit:4;stroke-dasharray:none;stroke-opacity:1"
       d="m 72.508498,190.20268 c 0.14029,-0.22959 0.429145,-0.30865 0.661943,-0.18047" />
    <path
       inkscape:connector-curvature="0"
       id="path13232"
       style="fill:none;stroke:#263238;stroke-width:0.17300387;stroke-linecap:round;stroke-linejoin:round;stroke-miterlimit:4;stroke-dasharray:none;stroke-opacity:1"
       d="m 78.286595,188.26749 c -0.507873,0.10961 -3.234068,1.29002 -3.234068,1.29002" />
    <path
       inkscape:connector-curvature="0"
       id="path13236"
       style="fill:#3a210c;fill-opacity:1;fill-rule:nonzero;stroke:none;stroke-width:0.31059942"
       d="m 76.906375,185.29055 c -1.549642,-0.74516 -3.023934,1.47079 -4.589205,1.44496 -1.565262,-0.0258 -2.851473,-1.29001 -2.851473,-1.29001 h 0.649379 c -0.762109,-0.64532 -1.352071,-2.32555 -1.352071,-2.32555 1.358505,0.55462 3.083359,-0.0904 3.083359,-0.0904 -0.34123,-0.22078 -0.576476,-0.57887 -0.649074,-0.98704 0.916187,0.40345 3.874261,-0.18046 6.136085,0.19685 2.261217,0.3773 1.9791,2.65435 1.9791,2.65435 0,0 -0.856146,1.14198 -2.4061,0.39683" />
    <path
       d="m 72.329613,192.77001 c 0.159896,-0.18708 1.389746,0 1.72884,-0.22581 0.338478,-0.22582 1.022171,-1.0642 1.311026,-1.14483 0.288543,-0.0806 1.700352,-0.21637 1.94785,-0.67744 0.248115,-0.46108 0.329291,-2.09659 0.329291,-2.09659 l 0.35165,0.35809 0.483057,1.61284 c 0,0 0.661639,1.65125 -0.16633,3.16392 l -0.01867,0.0258 c -1.606315,2.61246 -5.238896,2.09974 -6.493562,-0.54202 -0.15591,-0.3329 -0.292223,-0.67555 -0.40801,-1.02545 0,0 0.775281,0.73854 0.934873,0.55146"
       style="fill:#1a1a1a;fill-opacity:1;fill-rule:nonzero;stroke:none;stroke-width:0.31059942"
       id="path13246"
       inkscape:connector-curvature="0" />
    <path
       d="m 72.508498,221.57176 c 0,0 -20.534088,-2.33845 -19.671509,0.96751 0.862892,3.30597 10.232743,7.28592 10.232743,7.28592 8.733018,-4.38937 15.922829,-4.22497 15.922829,-4.22497 l 6.505813,-7.4182 z"
       style="fill:#1a1a1a;fill-opacity:1;fill-rule:nonzero;stroke:none;stroke-width:0.31059942"
       id="path13262"
       inkscape:connector-curvature="0" />
    <path
       inkscape:connector-curvature="0"
       id="path13272"
       style="fill:#ebb376;fill-opacity:1;fill-rule:nonzero;stroke:none;stroke-width:0.31059942"
       d="m 84.915116,219.14958 c 0,0 -11.565815,2.78348 -11.998945,3.02536 -0.432827,0.24188 -4.407254,0.14519 -5.86286,-0.60626 -1.455294,-0.75146 1.120193,-2.90285 1.785201,-2.90285 0.665008,0 4.391633,0.84814 4.391633,0.84814 l 10.430001,-3.50911 z" />
    <path
       inkscape:connector-curvature="0"
       id="path13276"
       style="fill:#263238;fill-opacity:1;fill-rule:nonzero;stroke:none;stroke-width:0.31059942"
       d="m 92.600512,215.01799 c -2.901711,3.80264 -8.234643,4.83786 -8.234643,4.83786 l -1.803583,-4.0927 c 0,0 3.918066,-1.37095 4.921856,-3.54785 1.003798,-2.17721 -3.089793,-16.96196 -0.730859,-16.4908 3.851902,0.76752 8.748942,15.49085 5.847229,19.29349" />
    <path
       d="m 92.600512,215.01799 c -2.901711,3.80264 -8.234643,4.83786 -8.234643,4.83786 l -1.803583,-4.0927 c 0,0 3.918066,-1.37095 4.921856,-3.54785 1.003798,-2.17721 -3.089793,-16.96196 -0.730859,-16.4908 3.851902,0.76752 8.748942,15.49085 5.847229,19.29349"
       style="fill:#1a1a1a;fill-opacity:1;fill-rule:nonzero;stroke:none;stroke-width:0.31059942"
       id="path13286"
       inkscape:connector-curvature="0" />
    <path
       inkscape:connector-curvature="0"
       id="path13296"
       style="fill:#263238;fill-opacity:1;fill-rule:nonzero;stroke:none;stroke-width:0.31059942"
       d="m 81.150824,216.20813 1.725158,4.07034 1.881999,-0.41604 -2.195661,-4.42182 z" />
    <path
       d="m 81.150824,216.20813 1.725158,4.07034 1.881999,-0.41604 -2.195661,-4.42182 z"
       style="fill:#ffffff;fill-opacity:1;fill-rule:nonzero;stroke:none;stroke-width:0.31059942"
       id="path13306"
       inkscape:connector-curvature="0" />
    <path
       inkscape:connector-curvature="0"
       id="path13316"
       style="fill:#263238;fill-opacity:1;fill-rule:nonzero;stroke:none;stroke-width:0.31059942"
       d="m 51.271692,221.56859 v 0.70295 c 0.02909,0.50077 0.425472,0.89539 0.912819,0.90956 h 25.217633 c 0.473254,-0.0223 0.845734,-0.42266 0.846959,-0.90956 v -0.70295 z" />
    <path
       d="m 51.271692,221.56859 v 0.70295 c 0.02909,0.50077 0.425472,0.89539 0.912819,0.90956 h 25.217633 c 0.473254,-0.0223 0.845734,-0.42266 0.846959,-0.90956 v -0.70295 z"
       style="fill:#ffffff;fill-opacity:1;fill-rule:nonzero;stroke:none;stroke-width:0.31059942"
       id="path13326"
       inkscape:connector-curvature="0" />
    <path
       d="m 51.271692,221.56859 v 0.70295 c 0.02909,0.50077 0.425472,0.89539 0.912506,0.90956 h 15.803986 c 0.473567,-0.022 0.847263,-0.42202 0.850328,-0.90956 v -0.70295 z"
       style="fill:#ffffff;fill-opacity:1;fill-rule:nonzero;stroke:none;stroke-width:0.31059942"
       id="path13342"
       inkscape:connector-curvature="0" />
    <path
       inkscape:connector-curvature="0"
       id="path13352"
       style="fill:#263238;fill-opacity:1;fill-rule:nonzero;stroke:none;stroke-width:0.31059942"
       d="m 68.287702,222.48258 c 0.330819,-0.14676 0.483057,-0.54171 0.340318,-0.88185 l -3.820357,-12.3077 c -0.18532,-0.53478 -0.660415,-0.90673 -1.21086,-0.9483 h -16.673 c -0.09588,-0.003 -0.191137,0.0161 -0.279356,0.0548 -0.336333,0.14802 -0.49194,0.548 -0.347968,0.89349 l 3.820965,12.32377 c 0.186232,0.52943 0.663775,0.89193 1.210861,0.91933 h 16.659818 c 0.102615,0.006 0.204926,-0.0116 0.299579,-0.0536" />
    <path
       d="m 68.287702,222.48258 c 0.330819,-0.14676 0.483057,-0.54171 0.340318,-0.88185 l -3.820357,-12.3077 c -0.18532,-0.53478 -0.660415,-0.90673 -1.21086,-0.9483 h -16.673 c -0.09588,-0.003 -0.191137,0.0161 -0.279356,0.0548 -0.336333,0.14802 -0.49194,0.548 -0.347968,0.89349 l 3.820965,12.32377 c 0.186232,0.52943 0.663775,0.89193 1.210861,0.91933 h 16.659818 c 0.102615,0.006 0.204926,-0.0116 0.299579,-0.0536"
       style="fill:#ffffff;fill-opacity:1;fill-rule:nonzero;stroke:none;stroke-width:0.31059942"
       id="path13362"
       inkscape:connector-curvature="0" />
    <path
       d="m 67.660126,222.48258 c 0.330819,-0.14676 0.483361,-0.54171 0.340622,-0.88185 l -3.820661,-12.3077 c -0.18532,-0.53478 -0.660102,-0.90673 -1.21086,-0.9483 H 46.923873 c -0.09588,-0.003 -0.191146,0.0161 -0.279365,0.0548 -0.336333,0.14802 -0.49194,0.548 -0.347968,0.89349 l 3.820653,12.32377 c 0.186552,0.52943 0.663783,0.89193 1.211172,0.91933 H 67.36086 c 0.102302,0.006 0.204917,-0.0116 0.299266,-0.0536"
       style="fill:#ffffff;fill-opacity:1;fill-rule:nonzero;stroke:none;stroke-width:0.31059942"
       id="path13378"
       inkscape:connector-curvature="0" />
    <path
       d="m 54.87897,215.76948 2.30563,1.67707 0.997668,-1.67707 -2.305629,-1.68023 z"
       style="fill:#ffffff;fill-opacity:1;fill-rule:nonzero;stroke:none;stroke-width:0.31059942"
       id="path13394"
       inkscape:connector-curvature="0" />
    <path
       d="m -5.246894,157.54269 h 17.162795 c 1.231995,0 2.230888,1.02672 2.230888,2.29343 v 17.64633 c 0,1.26671 -0.998893,2.29342 -2.230888,2.29342 H -5.246894 c -1.2316888,0 -2.2302697,-1.02671 -2.2302697,-2.29342 v -17.64633 c 0,-1.26671 0.9985809,-2.29343 2.2302697,-2.29343"
       style="fill:#1a1a1a;fill-opacity:1;fill-rule:nonzero;stroke:none;stroke-width:0.31059942"
       id="path13410"
       inkscape:connector-curvature="0" />
    <path
       inkscape:connector-curvature="0"
       id="path13420"
       style="fill:#006837;fill-opacity:1;fill-rule:nonzero;stroke:none;stroke-width:0.31059942"
       d="M 0.4570163,155.10238 H 14.835412 c 1.033201,0 1.870973,0.86105 1.870973,1.92336 v 14.78349 c 0,1.06231 -0.837772,1.92368 -1.870973,1.92368 H 0.4570163 c -1.03319796,0 -1.8703554,-0.86137 -1.8703554,-1.92368 v -14.78349 c 0,-1.06231 0.83715744,-1.92336 1.8703554,-1.92336" />
    <path
       inkscape:connector-curvature="0"
       id="path13424"
       style="fill:#ffffff;fill-opacity:1;fill-rule:nonzero;stroke:none;stroke-width:0.31059942"
       d="m 5.5943741,163.22886 c -0.8203108,0.002 -1.4865422,-0.68123 -1.4877665,-1.52465 -9.551e-4,-0.84342 0.6625577,-1.5281 1.4825559,-1.52969 0.8206165,-0.002 1.4868575,0.68123 1.4880817,1.52465 v 0.005 c -9.551e-4,0.84154 -0.6644001,1.52308 -1.4828711,1.52465 m 3.4481822,-0.9631 v -1.12561 l -0.5642357,-0.0551 c -0.073805,-0.37416 -0.2168631,-0.73067 -0.421181,-1.04972 l 0.3626772,-0.45131 -0.765783,-0.78704 -0.4364985,0.37258 c -0.3106074,-0.20913 -0.6570466,-0.3562 -1.0206442,-0.43305 l -0.056352,-0.59021 H 5.045779 l -0.048364,0.59021 c -0.3639015,0.0769 -0.7103502,0.22392 -1.0209481,0.43305 l -0.4364977,-0.37258 -0.7654798,0.78704 0.3623645,0.45131 c -0.2040053,0.31905 -0.3470479,0.67556 -0.4208692,1.04972 l -0.5642331,0.0551 v 1.12561 l 0.5642331,0.0551 c 0.074413,0.37416 0.2171765,0.73036 0.4208692,1.04972 l -0.3623645,0.45131 0.7654798,0.78705 0.4364977,-0.37258 c 0.3105979,0.20943 0.6570466,0.3562 1.0209481,0.43305 l 0.053574,0.57981 h 1.0947686 l 0.053574,-0.57981 c 0.3639015,-0.0769 0.7100307,-0.22362 1.0209394,-0.43305 l 0.4361973,0.37258 0.7654772,-0.78705 -0.3620615,-0.45919 c 0.2033897,-0.31935 0.3464418,-0.67556 0.4211836,-1.04971 z" />
    <path
       inkscape:connector-curvature="0"
       id="path13428"
       style="fill:#ffffff;fill-opacity:1;fill-rule:nonzero;stroke:none;stroke-width:0.31059942"
       d="m 10.780461,166.20189 c -0.642954,0 -1.1639989,-0.53571 -1.1639989,-1.19647 0,-0.66075 0.5210449,-1.19679 1.1639989,-1.19679 0.64265,0 1.163686,0.53604 1.163686,1.19679 v 0 c 0,0.66076 -0.521036,1.19647 -1.163686,1.19647 m 2.702309,-0.75303 v -0.88436 l -0.441093,-0.0419 c -0.05878,-0.29101 -0.170314,-0.56816 -0.329291,-0.81602 l 0.283039,-0.35179 -0.597012,-0.62454 -0.342153,0.29132 c -0.241071,-0.16345 -0.510624,-0.27841 -0.793661,-0.33857 l -0.04072,-0.45635 h -0.865332 l -0.04072,0.45635 c -0.28304,0.0602 -0.5522876,0.17512 -0.7936643,0.33857 l -0.3421498,-0.29132 -0.6098732,0.62454 0.2833421,0.35179 c -0.1592891,0.24786 -0.2707866,0.52501 -0.3289882,0.81602 l -0.4416988,0.0419 v 0.88436 l 0.4416988,0.0419 c 0.058176,0.29101 0.1696991,0.56816 0.3289882,0.81602 l -0.2833421,0.3518 0.6077267,0.62453 0.3418469,-0.29132 c 0.2410641,0.16345 0.5106277,0.27841 0.7936547,0.33856 l 0.04072,0.45384 h 0.860131 l 0.04072,-0.45384 c 0.283342,-0.0602 0.55259,-0.17511 0.793967,-0.33856 l 0.341847,0.29132 0.607117,-0.62453 -0.28334,-0.3518 c 0.159281,-0.24786 0.271088,-0.52501 0.329595,-0.81602 z" />
    <path
       inkscape:connector-curvature="0"
       id="path13432"
       style="fill:#ffffff;fill-opacity:1;fill-rule:nonzero;stroke:none;stroke-width:0.31059942"
       d="m 6.7837276,168.58706 c -0.5400346,0.002 -0.9783662,-0.44722 -0.979903,-1.00247 -0.00182,-0.55493 0.4349703,-1.00593 0.9746932,-1.00751 0.5400347,-0.002 0.9786788,0.44723 0.9802061,1.00247 v 0.005 c 0,0.55367 -0.4364977,1.00246 -0.9749963,1.00246 m 2.2587601,-0.63241 v -0.74264 l -0.372785,-0.034 c -0.048364,-0.24439 -0.1421308,-0.47682 -0.2753712,-0.685 L 8.6314188,166.1966 8.121098,165.6719 7.8328509,165.91567 C 7.6297668,165.77965 7.4037068,165.68359 7.1666195,165.63288 L 7.130759,165.24959 H 6.4084697 l -0.035861,0.38329 c -0.2370873,0.0507 -0.4631473,0.14677 -0.6659275,0.28314 l -0.2882402,-0.24377 -0.5106247,0.5247 0.2373904,0.29636 c -0.1335521,0.20818 -0.2272843,0.44061 -0.2756829,0.685 l -0.3724802,0.034 v 0.74264 l 0.3724802,0.0369 c 0.04958,0.24377 0.1430521,0.4762 0.2756829,0.68469 l -0.2373904,0.29668 0.5106247,0.52469 0.2882402,-0.24408 c 0.2030928,0.13637 0.4291528,0.23306 0.6659275,0.28597 l 0.035861,0.38077 H 7.130759 L 7.16662,169.5398 c 0.2367817,-0.0529 0.4628417,-0.1496 0.6662314,-0.28597 l 0.2882471,0.24408 0.5103208,-0.52469 -0.2370873,-0.29668 c 0.1323278,-0.20849 0.22606,-0.44092 0.2753712,-0.68469 z" />
    <path
       d="m 27.220932,179.12246 h 15.866467 c 1.138879,0 2.061805,0.94924 2.061805,2.12021 v 16.31348 c 0,1.17097 -0.922926,2.12021 -2.061805,2.12021 H 27.220932 c -1.138878,0 -2.062108,-0.94924 -2.062108,-2.12021 v -16.31348 c 0,-1.17097 0.92323,-2.12021 2.062108,-2.12021"
       style="fill:#1a1a1a;fill-opacity:1;fill-rule:nonzero;stroke:none;stroke-width:0.31059942"
       id="path13442"
       inkscape:connector-curvature="0" />
    <path
       inkscape:connector-curvature="0"
       id="path13452"
       style="fill:#006837;fill-opacity:1;fill-rule:nonzero;stroke:none;stroke-width:0.31059942"
       d="m 31.908982,178.02299 h 13.294047 c 0.954167,0 1.727608,0.79523 1.727608,1.7766 v 13.66827 c 0,0.98105 -0.773441,1.77629 -1.727608,1.77629 H 31.908982 c -0.953863,0 -1.727615,-0.79524 -1.727615,-1.77629 v -13.66827 c 0,-0.98137 0.773752,-1.7766 1.727615,-1.7766" />
    <path
       inkscape:connector-curvature="0"
       id="path13456"
       style="fill:#ffffff;fill-opacity:1;fill-rule:nonzero;stroke:none;stroke-width:0.31059942"
       d="m 39.195312,189.40063 c 0,0.34361 -0.270785,0.62202 -0.604974,0.62202 -0.333876,0 -0.604661,-0.27841 -0.604661,-0.62202 0,-0.34329 0.270785,-0.62202 0.604661,-0.62169 h 0.0026 c 0.332964,8.9e-4 0.602213,0.27935 0.602213,0.62169" />
    <path
       inkscape:connector-curvature="0"
       id="path13460"
       style="fill:#ffffff;fill-opacity:1;fill-rule:nonzero;stroke:none;stroke-width:0.31059942"
       d="m 38.539612,183.19749 c -3.315237,-0.002 -6.004069,2.76049 -6.00499,6.16913 v 0.005 h 4.795355 c -0.03152,-0.64123 0.449055,-1.18703 1.072714,-1.21884 0.04533,-0.003 0.09128,-0.002 0.136921,8.9e-4 0.122221,0.006 0.243522,0.0299 0.359916,0.0709 l 2.248349,-2.68427 -1.587621,3.17495 c 0.124053,0.19496 0.188992,0.42329 0.186231,0.65604 h 4.808223 c 2.26e-4,-3.40991 -2.688521,-6.17418 -6.004991,-6.17418 z" />
    <path
       d="m 34.03762,162.69622 h 13.921683 c 0.999196,0 1.8094,0.83303 1.8094,1.86038 v 14.31391 c 0,1.02766 -0.810204,1.86037 -1.8094,1.86037 H 34.03762 c -0.9995,0 -1.809401,-0.83271 -1.809401,-1.86037 V 164.5566 c 0,-1.02735 0.809901,-1.86038 1.809401,-1.86038"
       style="fill:#1a1a1a;fill-opacity:1;fill-rule:nonzero;stroke:none;stroke-width:0.31059942"
       id="path13470"
       inkscape:connector-curvature="0" />
    <path
       inkscape:connector-curvature="0"
       id="path13480"
       style="fill:#006837;fill-opacity:1;fill-rule:nonzero;stroke:none;stroke-width:0.31059942"
       d="m 38.447479,161.10606 h 11.665676 c 0.837156,0 1.515952,0.69792 1.515952,1.55866 v 11.99435 c 0,0.86074 -0.678796,1.55865 -1.515952,1.55865 H 38.447479 c -0.836852,0 -1.515641,-0.69791 -1.515641,-1.55865 v -11.99435 c 0,-0.86074 0.678789,-1.55866 1.515641,-1.55866" />
    <path
       inkscape:connector-curvature="0"
       id="path13484"
       style="fill:#ffffff;fill-opacity:1;fill-rule:nonzero;stroke:none;stroke-width:0.31059942"
       d="m 47.109522,166.03658 c -0.229733,0.002 -0.417197,-0.18897 -0.418734,-0.42517 -8.68e-4,-0.23621 0.183792,-0.42895 0.413524,-0.43021 0.229742,-0.002 0.417206,0.18896 0.418735,0.42517 v 0.005 c 0,0.23495 -0.18532,0.42517 -0.413525,0.42517 h -0.0026 z m -1.10518,-0.21258 h -0.413524 v -0.42518 h 0.413524 z m 2.378531,-0.88436 c 0,-0.2737 -0.215953,-0.49573 -0.482449,-0.49573 h -7.202062 c -0.266184,0 -0.482137,0.22203 -0.482137,0.49573 v 1.63235 c 0,0.27369 0.215953,0.49572 0.482137,0.49572 h 7.202062 c 0.266496,0 0.482449,-0.22203 0.482449,-0.49572 z" />
    <path
       inkscape:connector-curvature="0"
       id="path13488"
       style="fill:#ffffff;fill-opacity:1;fill-rule:nonzero;stroke:none;stroke-width:0.31059942"
       d="m 47.109522,169.0883 c -0.228508,0 -0.413828,-0.19023 -0.413828,-0.42518 0,-0.23463 0.18532,-0.42486 0.413828,-0.42486 0.228205,0 0.413525,0.19023 0.413525,0.42486 0,0.23338 -0.184096,0.42266 -0.411076,0.42266 -0.0017,0 -0.0035,0 -0.0052,0 z m -1.10518,-0.21258 h -0.413524 v -0.42518 h 0.413524 z m 2.378531,-1.04972 c 0,-0.27369 -0.215953,-0.49573 -0.482449,-0.49573 h -7.202062 c -0.266184,0 -0.482137,0.22204 -0.482137,0.49573 v 1.63235 c 0,0.2737 0.215953,0.49573 0.482137,0.49573 h 7.202062 c 0.266496,0 0.482449,-0.22203 0.482449,-0.49573 z" />
    <path
       inkscape:connector-curvature="0"
       id="path13492"
       style="fill:#ffffff;fill-opacity:1;fill-rule:nonzero;stroke:none;stroke-width:0.31059942"
       d="m 47.109522,172.13734 c -0.228508,0 -0.413828,-0.19023 -0.413828,-0.42518 0,-0.23463 0.18532,-0.42486 0.413828,-0.42486 0.228205,0 0.413525,0.19023 0.413525,0.42486 0,0.23495 -0.18532,0.42518 -0.413525,0.42518 h -0.0026 z m -1.10518,-0.21259 h -0.413524 v -0.42517 h 0.413524 z m 2.378531,-1.21223 c 0,-0.27399 -0.215953,-0.49603 -0.482449,-0.49603 h -7.202062 c -0.266184,0 -0.482137,0.22204 -0.482137,0.49603 v 1.63205 c 0,0.274 0.215953,0.49603 0.482137,0.49603 h 7.202062 c 0.266496,0 0.482449,-0.22203 0.482449,-0.49603 z" />
    <path
       d="M 5.8522319,176.66113 H 23.015026 c 1.231995,0 2.230887,1.02673 2.230887,2.29343 v 17.64634 c 0,1.2667 -0.998892,2.29341 -2.230887,2.29341 H 5.8522319 c -1.2316914,0 -2.2305823,-1.02671 -2.2305823,-2.29341 v -17.64634 c 0,-1.2667 0.9988909,-2.29343 2.2305823,-2.29343"
       style="fill:#1a1a1a;fill-opacity:1;fill-rule:nonzero;stroke:none;stroke-width:0.31059942"
       id="path13502"
       inkscape:connector-curvature="0" />
    <path
       inkscape:connector-curvature="0"
       id="path13512"
       style="fill:#1b530b;fill-opacity:1;fill-rule:nonzero;stroke:none;stroke-width:0.31059942"
       d="m 10.565976,175.08938 h 14.378397 c 1.033199,0 1.870657,0.86105 1.870657,1.92336 v 14.78349 c 0,1.06231 -0.837458,1.92337 -1.870657,1.92337 H 10.565976 c -1.0331999,0 -1.8706578,-0.86106 -1.8706578,-1.92337 v -14.78349 c 0,-1.06231 0.8374579,-1.92336 1.8706578,-1.92336" />
    <path
       d="m 10.565976,175.08938 h 14.378397 c 1.033199,0 1.870657,0.86105 1.870657,1.92336 v 14.78349 c 0,1.06231 -0.837458,1.92337 -1.870657,1.92337 H 10.565976 c -1.0331999,0 -1.8706578,-0.86106 -1.8706578,-1.92337 v -14.78349 c 0,-1.06231 0.8374579,-1.92336 1.8706578,-1.92336"
       style="fill:#ffffff;fill-opacity:1;fill-rule:nonzero;stroke:none;stroke-width:0.31059942"
       id="path13522"
       inkscape:connector-curvature="0" />
    <path
       inkscape:connector-curvature="0"
       id="path13532"
       style="fill:#ffffff;fill-opacity:1;fill-rule:nonzero;stroke:none;stroke-width:0.31059942"
       d="m 12.742803,189.51874 v 0 c -0.553207,-0.5688 -0.553512,-1.49064 -2.3e-4,-2.05942 2.3e-4,-2.4e-4 2.3e-4,-2.4e-4 2.3e-4,-2.4e-4 l 3.317694,-3.39573 c 0.308452,-0.31998 0.811115,-0.32281 1.122641,-0.005 0.0018,0.002 0.0035,0.004 0.0052,0.005 l 0.872687,0.89507 c 0.312437,0.31841 0.314581,0.83681 0.0043,1.15774 -0.0018,0.002 -0.0035,0.004 -0.0043,0.004 l -3.304826,3.39794 c -0.546157,0.57162 -1.439673,0.57981 -1.995641,0.0183 -0.0061,-0.006 -0.01199,-0.012 -0.01806,-0.0183" />
    <path
       inkscape:connector-curvature="0"
       id="path13536"
       style="fill:#ffffff;fill-opacity:1;fill-rule:nonzero;stroke:none;stroke-width:0.31059942"
       d="m 18.832296,183.92697 -0.650917,-0.66925 3.733668,-3.83886 0.814181,-0.16787 -0.163569,0.83712 z" />
    <path
       inkscape:connector-curvature="0"
       id="path13540"
       style="fill:#ffffff;fill-opacity:1;fill-rule:nonzero;stroke:none;stroke-width:0.31059942"
       d="m 18.464661,184.81653 -1.148371,-1.18356 c -0.102311,-0.0995 -0.106599,-0.26581 -0.0092,-0.37069 0.0026,-0.004 0.0061,-0.006 0.0092,-0.01 0.09618,-0.10583 0.257918,-0.11118 0.360837,-0.012 0.0035,0.004 0.0078,0.008 0.01199,0.012 l 1.148368,1.18103 c 0.10292,0.0989 0.107825,0.26487 0.01163,0.37069 -0.0035,0.004 -0.0078,0.009 -0.01163,0.0123 -0.09648,0.10582 -0.257917,0.11118 -0.360836,0.0123 -0.0043,-0.004 -0.0078,-0.008 -0.01197,-0.0123" />
    <path
       inkscape:connector-curvature="0"
       id="path13544"
       style="fill:#ffffff;fill-opacity:1;fill-rule:nonzero;stroke:none;stroke-width:0.31059942"
       d="m 16.918144,182.5494 -1.574762,-1.62416 c 0.293448,-0.81099 -0.301106,-1.8081 -0.946507,-2.07045 l -0.01284,1.24907 c 0,0.28975 -0.228821,0.5247 -0.510321,0.5247 -0.282118,0 -0.510627,-0.23495 -0.510627,-0.5247 v -1.22797 c -0.60466,0.25196 -1.012671,0.84122 -1.046057,1.51142 0.0078,0.80122 0.589345,1.47331 1.362482,1.57441 0.260063,0.041 0.526559,0.003 0.76579,-0.11024 l 1.587317,1.63741 z" />
    <path
       inkscape:connector-curvature="0"
       id="path13548"
       style="fill:#ffffff;fill-opacity:1;fill-rule:nonzero;stroke:none;stroke-width:0.31059942"
       d="m 22.160157,188.71053 v 1.2412 c 0.604974,-0.25196 1.012985,-0.84154 1.04637,-1.51142 0.0052,-0.79775 -0.560247,-1.47803 -1.327261,-1.59803 -0.244131,-0.052 -0.49776,-0.0264 -0.727188,0.0734 l -1.648887,-1.70039 -0.903328,0.92909 1.638788,1.68716 c -0.47479,0.99711 0.255156,1.83675 0.910666,2.0991 v -1.23333 c 0,-0.28974 0.228518,-0.52469 0.510627,-0.52469 0.281812,0.005 0.506032,0.24534 0.500213,0.53509 z" />
    <path
       d="m 11.331488,175.08938 h 14.378398 c 1.033198,0 1.870971,0.86105 1.870971,1.92336 v 14.78349 c 0,1.06231 -0.837773,1.92337 -1.870971,1.92337 H 11.331488 c -1.032895,0 -1.8703548,-0.86106 -1.8703548,-1.92337 v -14.78349 c 0,-1.06231 0.8374598,-1.92336 1.8703548,-1.92336"
       style="fill:#ffffff;fill-opacity:1;fill-rule:nonzero;stroke:none;stroke-width:0.31059942"
       id="path13558"
       inkscape:connector-curvature="0" />
    <path
       inkscape:connector-curvature="0"
       id="path13568"
       style="fill:#1b530b;fill-opacity:1;fill-rule:nonzero;stroke:none;stroke-width:0.31059942"
       d="M 38.473205,171.71752 H 21.139183 c -1.244244,0 -2.253243,-1.03743 -2.253243,-2.31705 V 151.5784 c 0,-1.27962 1.008999,-2.31705 2.253243,-2.31705 h 17.334022 c 1.244246,0 2.253246,1.03743 2.253246,2.31705 v 17.82207 c 0,1.27962 -1.009,2.31705 -2.253246,2.31705" />
    <path
       d="m 16.535244,152.82738 h 20.687247 c 1.485926,0 2.690048,1.23836 2.690048,2.76552 v 21.2704 c 0,1.52749 -1.204122,2.76553 -2.690048,2.76553 H 16.535244 c -1.485623,0 -2.689744,-1.23804 -2.689744,-2.76553 v -21.2704 c 0,-1.52716 1.204121,-2.76552 2.689744,-2.76552"
       style="fill:#1a1a1a;fill-opacity:1;fill-rule:nonzero;stroke:none;stroke-width:0.31059942"
       id="path13578"
       inkscape:connector-curvature="0" />
    <path
       d="M 38.473205,171.71752 H 21.139183 c -1.244244,0 -2.253243,-1.03743 -2.253243,-2.31705 V 151.5784 c 0,-1.27962 1.008999,-2.31705 2.253243,-2.31705 h 17.334022 c 1.244246,0 2.253246,1.03743 2.253246,2.31705 v 17.82207 c 0,1.27962 -1.009,2.31705 -2.253246,2.31705"
       style="fill:#ffffff;fill-opacity:1;fill-rule:nonzero;stroke:none;stroke-width:0.31059942"
       id="path13594"
       inkscape:connector-curvature="0" />
    <path
       inkscape:connector-curvature="0"
       id="path13604"
       style="fill:#ffffff;fill-opacity:1;fill-rule:nonzero;stroke:none;stroke-width:0.31059942"
       d="m 29.630183,162.67783 c -0.08822,0.11905 -0.22453,0.18991 -0.370031,0.19149 -0.147029,-0.003 -0.284565,-0.0762 -0.370024,-0.19936 L 26.54468,159.3454 c -0.150094,-0.21227 -0.104456,-0.50958 0.101998,-0.6639 0.206766,-0.15432 0.49562,-0.10739 0.645714,0.10488 l 1.980324,2.80237 3.235902,-4.39253 c 0.154077,-0.20817 0.442933,-0.24911 0.646017,-0.0917 0.197885,0.17417 0.236481,0.474 0.08944,0.6954 z m 0.168476,-9.14725 -6.681634,2.6975 c 0,0 0.844814,9.44645 6.688979,11.21769 5.846936,-1.77124 6.69175,-11.21769 6.69175,-11.21769 z" />
    <path
       d="m 39.394533,171.71752 h -17.33402 c -1.244247,0 -2.253246,-1.03743 -2.253246,-2.31705 V 151.5784 c 0,-1.27962 1.008999,-2.31705 2.253246,-2.31705 h 17.33402 c 1.244246,0 2.253246,1.03743 2.253246,2.31705 v 17.82207 c 0,1.27962 -1.009,2.31705 -2.253246,2.31705"
       style="fill:#ffffff;fill-opacity:1;fill-rule:nonzero;stroke:none;stroke-width:0.31059942"
       id="path13614"
       inkscape:connector-curvature="0" />
    <path
       d="M -18.263026,207.3546 H 6.8921257 v 17.45391 H -18.263026 Z"
       style="fill:#1b530b;fill-opacity:1;fill-rule:nonzero;stroke:none;stroke-width:0.31059942"
       id="path13622"
       inkscape:connector-curvature="0" />
    <path
       inkscape:connector-curvature="0"
       id="path13632"
       style="fill:#ffffff;fill-opacity:1;fill-rule:nonzero;stroke:none;stroke-width:0.31059942"
       d="M -18.263026,207.3546 H 6.8921257 v 17.45391 H -18.263026 Z" />
    <path
       d="M -17.796509,208.69879 H 6.3609737 v 15.52739 H -17.796509 Z"
       style="fill:#263238;fill-opacity:1;fill-rule:nonzero;stroke:none;stroke-width:0.31059942"
       id="path13638"
       inkscape:connector-curvature="0" />
    <path
       d="M -16.690105,211.10465 H 3.1713273 v 0.45509 H -16.690105 Z"
       style="fill:#e0e0e0;fill-opacity:1;fill-rule:nonzero;stroke:none;stroke-width:0.31059942"
       id="path13640"
       inkscape:connector-curvature="0" />
    <path
       d="M -16.690105,212.39403 H 0.21753337 v 0.4551 H -16.690105 Z"
       style="fill:#e0e0e0;fill-opacity:1;fill-rule:nonzero;stroke:none;stroke-width:0.31059942"
       id="path13642"
       inkscape:connector-curvature="0" />
    <path
       d="M -16.690105,213.68341 H 3.1713273 v 0.4551 H -16.690105 Z"
       style="fill:#e0e0e0;fill-opacity:1;fill-rule:nonzero;stroke:none;stroke-width:0.31059942"
       id="path13644"
       inkscape:connector-curvature="0" />
    <path
       d="M -16.690105,214.9728 H 0.21753337 v 0.45509 H -16.690105 Z"
       style="fill:#e0e0e0;fill-opacity:1;fill-rule:nonzero;stroke:none;stroke-width:0.31059942"
       id="path13646"
       inkscape:connector-curvature="0" />
    <path
       d="m -16.690105,216.26218 h 2.145127 v 0.45509 h -2.145127 z"
       style="fill:#e0e0e0;fill-opacity:1;fill-rule:nonzero;stroke:none;stroke-width:0.31059942"
       id="path13648"
       inkscape:connector-curvature="0" />
    <path
       d="m -16.690105,217.55156 h 11.0031267 v 0.45509 H -16.690105 Z"
       style="fill:#e0e0e0;fill-opacity:1;fill-rule:nonzero;stroke:none;stroke-width:0.31059942"
       id="path13650"
       inkscape:connector-curvature="0" />
    <path
       d="M -16.690105,218.84094 H 0.21753337 v 0.4551 H -16.690105 Z"
       style="fill:#e0e0e0;fill-opacity:1;fill-rule:nonzero;stroke:none;stroke-width:0.31059942"
       id="path13652"
       inkscape:connector-curvature="0" />
    <path
       d="m -16.690105,220.13032 h 2.145127 v 0.4551 h -2.145127 z"
       style="fill:#e0e0e0;fill-opacity:1;fill-rule:nonzero;stroke:none;stroke-width:0.31059942"
       id="path13654"
       inkscape:connector-curvature="0" />
    <path
       d="m -16.690105,221.41971 h 2.145127 v 0.45509 h -2.145127 z"
       style="fill:#e0e0e0;fill-opacity:1;fill-rule:nonzero;stroke:none;stroke-width:0.31059942"
       id="path13656"
       inkscape:connector-curvature="0" />
    <path
       d="m 60.40231,158.34076 h 25.155151 v 17.4539 H 60.40231 Z"
       style="fill:#1b530b;fill-opacity:1;fill-rule:nonzero;stroke:none;stroke-width:0.31059942"
       id="path13658"
       inkscape:connector-curvature="0" />
    <path
       inkscape:connector-curvature="0"
       id="path13668"
       style="fill:#ffffff;fill-opacity:1;fill-rule:nonzero;stroke:none;stroke-width:0.31059942"
       d="m 60.40231,158.34076 h 25.155151 v 17.4539 H 60.40231 Z" />
    <path
       d="m 60.871588,159.68494 h 24.157474 v 15.52739 H 60.871588 Z"
       style="fill:#263238;fill-opacity:1;fill-rule:nonzero;stroke:none;stroke-width:0.31059942"
       id="path13674"
       inkscape:connector-curvature="0" />
    <path
       d="m 61.977992,162.0908 h 19.861423 v 0.4551 H 61.977992 Z"
       style="fill:#e0e0e0;fill-opacity:1;fill-rule:nonzero;stroke:none;stroke-width:0.31059942"
       id="path13676"
       inkscape:connector-curvature="0" />
    <path
       d="m 61.977992,163.38019 h 16.90763 v 0.45509 h -16.90763 z"
       style="fill:#e0e0e0;fill-opacity:1;fill-rule:nonzero;stroke:none;stroke-width:0.31059942"
       id="path13678"
       inkscape:connector-curvature="0" />
    <path
       d="m 61.977992,164.66957 h 19.861423 v 0.45509 H 61.977992 Z"
       style="fill:#e0e0e0;fill-opacity:1;fill-rule:nonzero;stroke:none;stroke-width:0.31059942"
       id="path13680"
       inkscape:connector-curvature="0" />
    <path
       d="m 61.977992,165.95895 h 16.90763 v 0.45509 h -16.90763 z"
       style="fill:#e0e0e0;fill-opacity:1;fill-rule:nonzero;stroke:none;stroke-width:0.31059942"
       id="path13682"
       inkscape:connector-curvature="0" />
    <path
       d="m 61.977992,167.24833 h 2.145117 v 0.4551 h -2.145117 z"
       style="fill:#e0e0e0;fill-opacity:1;fill-rule:nonzero;stroke:none;stroke-width:0.31059942"
       id="path13684"
       inkscape:connector-curvature="0" />
    <path
       d="m 61.977992,168.53771 h 11.003422 v 0.4551 H 61.977992 Z"
       style="fill:#e0e0e0;fill-opacity:1;fill-rule:nonzero;stroke:none;stroke-width:0.31059942"
       id="path13686"
       inkscape:connector-curvature="0" />
    <path
       d="m 61.977992,169.8271 h 16.90763 v 0.45509 h -16.90763 z"
       style="fill:#e0e0e0;fill-opacity:1;fill-rule:nonzero;stroke:none;stroke-width:0.31059942"
       id="path13688"
       inkscape:connector-curvature="0" />
    <path
       d="m 61.977992,171.11648 h 2.145117 v 0.45509 h -2.145117 z"
       style="fill:#e0e0e0;fill-opacity:1;fill-rule:nonzero;stroke:none;stroke-width:0.31059942"
       id="path13690"
       inkscape:connector-curvature="0" />
    <path
       d="m 61.977992,172.40586 h 2.145117 v 0.45509 h -2.145117 z"
       style="fill:#e0e0e0;fill-opacity:1;fill-rule:nonzero;stroke:none;stroke-width:0.31059942"
       id="path13692"
       inkscape:connector-curvature="0" />
  </g>
</svg>
