<?xml version="1.0" encoding="UTF-8"?>
<svg width="2333.3" height="625" version="1.1" viewBox="0 0 179.9 48.189" xmlns="http://www.w3.org/2000/svg" xmlns:cc="http://creativecommons.org/ns#" xmlns:dc="http://purl.org/dc/elements/1.1/" xmlns:rdf="http://www.w3.org/1999/02/22-rdf-syntax-ns#">
 <metadata>
  <rdf:RDF>
   <cc:Work rdf:about="">
    <dc:format>image/svg+xml</dc:format>
    <dc:type rdf:resource="http://purl.org/dc/dcmitype/StillImage"/>
    <dc:title/>
   </cc:Work>
  </rdf:RDF>
 </metadata>
 <g clip-rule="evenodd" fill="#376355" fill-rule="evenodd">
  <path d="m142.82 1.5771h14.715l-1.738 8.554c4.496-7.033 9.643-9.06 15.949-9.495 2.174-0.07 4.857 0.218 7.25 0.58l-2.83 11.236c-2.318-0.58-4.781-1.015-6.957-1.015-8.699-0.144-15.152 5.724-17.398 14.131l-5.076 19.285h-15.221c3.767-14.425 8.771-30.153 11.306-43.276z"/>
  <path d="m100.99 20.798c2.537-1.232 11.381-1.098 17.107-1.823 6.598-0.797 15.801-4.422 15.582-9.931-0.361-5.872-5.578-7.203-10.436-6.55-11.452 1.667-18.919 9.171-22.253 18.304zm-1.418 3.747c-0.289 2.535-0.611 5.232-0.395 7.262 0.941 7.176 7.234 10.533 13.975 10.75 5.615 0.133 12.459-3.225 16.182-7.408 0.703-0.791 1.512-0.533 1.988 0.098 0.363 0.482 0.221 1.57-0.115 1.902-5.846 5.805-11.857 9.08-20.213 9.152-9.496 0.072-21.387-3.549-22.835-13.406-0.218-1.16-0.218-2.465-0.073-3.844 1.885-18.261 18.559-28.126 34.941-28.996 7.828-0.435 19.139 1.595 18.484 10.077-0.65 8.917-14.135 12.034-22.906 12.251-7.394 0.217-16.496 0.184-19.033 2.162z"/>
  <path d="m91.391 34.854-2.463 9.422c-4.132 0.871-9.499 1.67-14.429 1.523-14.643-0.289-25.372-7.033-24.719-20.951 0.796-16.019 16.674-24.211 31.97-24.429 5.075 0 9.714 0.506 14.86 1.739l-4.566 9.061c-3.335-0.942-7.83-1.812-12.325-1.377-7.032 0.507-13.483 4.277-15.368 11.671-2.465 9.278 2.899 15.806 12.396 15.806 5.002 0 9.86-1.014 14.644-2.465z"/>
  <path d="m29.482 0.56309c12.251 0 21.478 2.814 22.358 12.986 0.339 3.913-1.087 7.403-2.174 11.536l-5.106 19.844c-9.786 0-17.76 0.217-26.604 0.943-8.192 0-17.979-1.74-17.979-12.18 0.172-17.059 26.605-15.514 37.841-15.514 2.393-6.814-3.19-9.569-11.019-9.569-7.104 0-12.955 2.03-18.682 3.915l2.008-9.207c5.584-1.812 12.76-2.754 19.357-2.754zm6.669 24.429c-6.173 0-23.617-1.456-23.617 7.975 0 4.711 4.93 5.414 9.062 5.414 10.858 0 12.552-3.791 14.555-13.389zm137.73 11.09a5.858 5.858 0 0 0-4.203 1.742c-1.156 1.232-1.811 2.752-1.811 4.346 0 1.598 0.654 3.047 1.742 4.207 1.156 1.16 2.68 1.812 4.271 1.812 1.596 0 3.119-0.652 4.281-1.812s1.738-2.609 1.738-4.207c0-1.664-0.576-3.184-1.738-4.273-1.16-1.16-2.684-1.815-4.28-1.815zm5.444 6.088c0 1.451-0.582 2.76-1.598 3.771a5.558 5.558 0 0 1-3.846 1.596 5.43 5.43 0 0 1-3.84-1.596c-1.014-1.012-1.592-2.391-1.592-3.771 0-1.445 0.578-2.824 1.592-3.914a5.443 5.443 0 0 1 3.84-1.592c1.453 0 2.832 0.58 3.846 1.668 1.016 1.014 1.598 2.317 1.598 3.838zm-5.295-3.623h-2.467v6.963h0.945v-3.119h1.74l1.52 3.119h1.09l-1.596-3.189c1.014-0.15 1.668-0.875 1.668-1.814 0-1.378-0.943-1.96-2.9-1.96zm-0.149 0.654c1.381 0 2.105 0.361 2.105 1.232 0 1.086-0.652 1.377-2.105 1.377h-1.373v-2.609z"/>
 </g>
</svg>
