<?xml version="1.0" encoding="UTF-8"?>
<svg width="2426" height="757.17" version="1.1" viewBox="0 0 187.05 58.38" xmlns="http://www.w3.org/2000/svg" xmlns:cc="http://creativecommons.org/ns#" xmlns:dc="http://purl.org/dc/elements/1.1/" xmlns:rdf="http://www.w3.org/1999/02/22-rdf-syntax-ns#">
 <metadata>
  <rdf:RDF>
   <cc:Work rdf:about="">
    <dc:format>image/svg+xml</dc:format>
    <dc:type rdf:resource="http://purl.org/dc/dcmitype/StillImage"/>
    <dc:title/>
   </cc:Work>
  </rdf:RDF>
 </metadata>
 <path d="m-0.038551 3.116h22.75l2.494 0.104 2.389 0.208 2.286 0.519 2.182 0.52 1.973 0.831 1.87 0.831 1.766 1.039 1.662 1.143 1.455 1.247 1.454 1.35 1.247 1.455 1.142 1.558 0.935 1.662 0.935 1.663 0.727 1.766 0.624 1.766 32.305-20.778 11.738 7.895-25.139 16.205 4.051 2.701 25.347-16.101 10.906 7.271-25.034 16.517 4.259 2.597 25.449-16.205v-17.764h18.699v35.423h16.621v16.62h-35.32v-17.036l-31.474 20.257-32.099-21.711-0.624 1.87-0.623 1.766-0.935 1.766-0.935 1.767-1.143 1.558-1.247 1.559-1.35 1.454-1.558 1.246-1.558 1.247-1.87 1.039-1.87 0.935-2.078 0.831-2.182 0.623-2.285 0.415-2.389 0.312-2.597 0.104h-22.956zm17.868 16.309h4.882l2.182 0.208 1.766 0.623 1.558 0.935 1.35 1.247 0.936 1.454 0.727 1.559 0.415 1.766 0.104 1.766-0.104 1.766-0.415 1.767-0.727 1.558-1.039 1.455-1.247 1.246-1.558 0.936-1.87 0.623-2.078 0.208h-4.882zm133.9-16.309h18.803v35.423h16.518v16.62h-35.32v-52.043z" clip-rule="evenodd" fill="#0382c7" fill-rule="evenodd"/>
</svg>
