<?xml version="1.0" encoding="UTF-8"?>
<svg width="2279.4" height="403.13" version="1.1" viewBox="0 0 175.75 31.083" xmlns="http://www.w3.org/2000/svg" xmlns:cc="http://creativecommons.org/ns#" xmlns:dc="http://purl.org/dc/elements/1.1/" xmlns:rdf="http://www.w3.org/1999/02/22-rdf-syntax-ns#">
 <metadata>
  <rdf:RDF>
   <cc:Work rdf:about="">
    <dc:format>image/svg+xml</dc:format>
    <dc:type rdf:resource="http://purl.org/dc/dcmitype/StillImage"/>
    <dc:title/>
   </cc:Work>
  </rdf:RDF>
 </metadata>
 <path d="m117.03 0a3.45 3.45 0 0 1 3.445 3.445c0 1.828-1.547 3.375-3.445 3.375s-3.445-1.547-3.445-3.375a3.45 3.45 0 0 1 3.445-3.445zm44.721 15.117c0-4.008 3.516-6.328 7.172-6.398 2.32 0 5.062 0.633 6.398 1.828-0.492 1.055-0.984 2.18-1.477 3.234-0.773-0.492-2.742-1.266-4.57-1.266-1.477 0-2.883 0.563-2.883 1.969 0 3.304 9.352 1.546 9.352 8.929 0 3.445-2.602 6.68-7.312 6.68-2.883 0-5.273-0.913-7.594-2.249 0.492-1.196 1.125-2.462 1.617-3.587 0.914 0.281 2.883 1.477 4.992 1.758 1.547 0.141 3.445-0.211 3.445-1.758 0-4.077-9.14-2.179-9.14-9.14zm-94.082 12.798c-0.07 0.07-0.141 0.21-0.211 0.28-1.195 1.477-2.742 2.11-4.712 2.181-3.445 0.141-6.328-2.672-6.328-6.259 0-5.766 5.415-7.172 10.617-7.312v-1.547c0-1.828-1.617-2.25-3.304-2.25-1.898 0.141-3.938 1.054-4.852 1.547a70.373 70.373 0 0 0-1.195-3.516c1.757-1.195 4.71-2.109 7.523-2.039 3.445 0 6.609 1.336 6.609 5.274v10.195c0 1.898 0.422 2.883 1.336 4.078-1.054 0.493-2.039 0.914-3.094 1.406-0.914 0.423-0.914 0.634-1.547-0.211-0.42-0.632-0.771-1.125-0.842-1.827zm-0.634-7.454h-1.547c-1.757 0-4.078 0.844-4.078 3.234-0.141 1.828 1.055 3.234 2.672 3.234 1.899 0 2.953-1.055 2.953-2.742zm-35.297-11.953c0.914 0.562 1.336 1.898 1.547 3.235 1.617-2.11 3.586-2.954 5.766-3.024 1.899-0.07 3.798 0.773 4.5 3.024 1.618-2.04 3.798-2.954 5.907-3.024 2.532-0.07 4.852 1.266 4.852 5.696v15.398h-5.062v-13.781c0-1.757-0.914-2.672-2.32-2.672-1.336 0-3.023 1.125-2.953 2.953v13.5h-4.925v-13.781c0-1.757-0.914-2.461-2.32-2.461-1.758 0-3.235 0.985-3.235 2.602v13.641h-4.992v-15.609c0-1.688-0.211-2.743-0.914-3.727 1.195-0.564 2.953-1.478 4.149-1.97zm95.698-0.141c0.984 0.633 1.406 1.969 1.688 3.305 1.758-2.25 4.5-3.305 6.82-2.953s4.148 2.109 4.148 5.625v15.468h-5.062v-14.203c0-1.758-1.336-2.531-2.812-2.531-1.617 0-3.023 1.547-3.023 3.164v13.57h-5.062v-15.68c0-1.688-0.211-2.812-0.914-3.727a229.75 229.75 0 0 0 4.217-2.038zm-30.025-8.367v11.672c1.758-1.758 3.869-2.883 6.119-2.953 2.602-0.07 4.641 1.688 4.641 6.047v15.047h-4.852v-14.062c0-1.758-1.125-2.531-2.602-2.461-1.969 0-3.307 1.477-3.307 3.094v13.43h-4.85v-27.565zm62.371 20.601h-12.025c-0.07 3.164 1.83 6.047 5.275 5.555 1.477-0.211 3.164-0.984 4.711-1.758l1.406 3.446c-2.039 1.477-4.43 2.391-7.031 2.461-6.539 0.141-9.354-4.571-9.494-10.688-0.07-6.75 3.375-10.617 8.369-11.039 7.172-0.633 8.859 6.328 8.789 12.023zm-8.51-8.296c-1.826 0-3.162 1.758-3.443 4.711h6.82c-0.07-3.024-1.617-4.711-3.377-4.711zm-66.939-3.024c2.109 0 4.008 0.703 5.625 1.898l-1.828 3.024c-0.281 0.562-0.281 0.773-0.773 0.281-0.844-0.844-1.898-1.406-3.023-1.406-2.812 0-4.359 2.039-4.359 6.679 0 4.781 1.547 6.82 4.359 6.82 1.196 0 2.32-0.633 3.234-1.617 0.422-0.562 0.281-0.773 0.562-0.07l1.335 3.586c-1.617 1.125-3.726 1.829-6.046 1.829-5.836 0-8.86-4.29-8.86-10.548 0-6.327 4.36-10.476 9.774-10.476zm26.299 0.141h8.789v20.391h-4.922v-16.454h-3.867z" clip-rule="evenodd" fill="#344b84" fill-rule="evenodd"/>
 <path d="m21.686 9.914c2.672 0.844 3.375 2.742 2.953 4.641-0.773 3.726-4.148 5.484-7.734 6.187-2.25 0.492-4.641 0.562-6.609 0.422-0.493 1.898-0.773 3.375 2.531 6.047 0.07 0 0.07 0.07 0.141 0.141-3.023 0.493-6.328 0.984-9.562 1.477-0.844 0.142-0.773 0-1.406-0.633-2.18-2.32-2.461-5.766-1.406-8.789 1.758-4.781 6.75-8.086 11.602-9.422 3.162-0.774 6.678-0.915 9.49-0.071zm-1.335 14.625c-4.219 2.812-8.86 5.133-14.556 6.118 0.915 0.28 1.829 0.421 2.953 0.421 6.68 0.141 10.829-2.953 12.868-4.852zm-8.579-6.047c1.054-0.07 2.883-0.562 4.219-1.758 0.984-0.844 1.899-2.32 0.914-3.445-0.773-0.914-2.672-0.773-4.079 1.477-0.773 1.125-1.546 2.812-1.054 3.726z" clip-rule="evenodd" fill="#5ba653" fill-rule="evenodd"/>
</svg>
