<?xml version="1.0" encoding="UTF-8"?>
<svg width="2245.1" height="943.32" version="1.1" viewBox="0 0 173.1 72.733" xmlns="http://www.w3.org/2000/svg" xmlns:cc="http://creativecommons.org/ns#" xmlns:dc="http://purl.org/dc/elements/1.1/" xmlns:rdf="http://www.w3.org/1999/02/22-rdf-syntax-ns#">
 <metadata>
  <rdf:RDF>
   <cc:Work rdf:about="">
    <dc:format>image/svg+xml</dc:format>
    <dc:type rdf:resource="http://purl.org/dc/dcmitype/StillImage"/>
    <dc:title/>
   </cc:Work>
  </rdf:RDF>
 </metadata>
 <path d="m1e-3 42.793v-41.821h31.84v8.08h-20.316v8.673h18.652v8.078h-18.652v8.792h20.316v8.198zm34.454-42.058h21.028c9.505 0 15.327 4.277 15.327 13.782 0 5.465-3.445 9.743-8.673 11.287l9.624 16.989h-11.762l-8.317-15.208h-6.653v15.208h-10.574zm10.574 19.128h9.624c3.326-0.119 5.584-1.782 5.584-5.703 0-3.92-2.258-5.584-5.584-5.703h-9.624zm57.146 7.248h-8.553v-8.08h20.078v22.336c-9.387 1.426-11.168 2.258-21.268 2.258-12.95-0.475-20.91-8.673-20.91-21.743 0-13.068 7.96-21.385 20.91-21.86 10.217-0.237 20.791 1.307 21.029 13.426h-11.643c-0.477-4.04-3.684-5.228-7.604-5.228-7.723 0-10.574 6.891-10.574 13.662 0 8.198 4.158 13.664 12.475 13.664 2.139 0 4.277-0.356 6.059-0.713v-7.722zm13.307-5.229c0-13.781 7.723-21.86 21.623-21.86 13.781 0 21.623 8.079 21.623 21.86 0 13.782-7.842 21.743-21.623 21.743-13.9 0-21.623-7.961-21.623-21.743zm21.623-13.662c-7.842 0-9.504 7.247-9.504 13.781 0 6.179 1.662 13.544 9.504 13.544s9.506-7.366 9.506-13.544c0-6.534-1.664-13.781-9.506-13.781z" clip-rule="evenodd" fill="#b01842" fill-rule="evenodd"/>
 <path d="m6.179 67.625h-1.545l-0.238-0.119-1.306-4.277-1.664-5.465-1.426-4.158 0.119-0.119 1.307-0.119 0.119 0.119c0.594 2.139 0.832 2.852 1.545 5.227l2.376 7.961 2.97-9.504c0.476-1.426 0.594-1.902 1.069-3.684l0.119-0.119h1.188l0.119 0.119-1.663 4.752-1.545 4.871-1.425 4.396zm5.584-6.297c0.119-0.477 0.237-1.426 0.95-2.258 0.594-0.713 1.544-1.068 2.376-1.068 0.594 0 1.663 0.117 2.495 1.307 0.476 0.713 0.476 1.424 0.594 2.02h-6.415zm7.722 0.949c0-1.068 0-2.494-0.951-3.682-0.95-1.189-2.138-1.545-3.327-1.545-2.97 0-4.752 2.258-4.752 5.465 0 2.971 1.782 5.346 4.99 5.346 1.782 0 2.733-0.475 3.564-0.949l0.119-0.238v-1.188l-0.119-0.119c-0.476 0.475-1.545 1.426-3.445 1.426-0.832 0-2.495-0.357-3.445-2.258-0.356-0.832-0.356-1.545-0.476-2.139h7.723zm6.535-3.801-0.238 0.119c-0.238-0.119-0.475-0.238-0.832-0.238-0.475 0-0.951 0.238-1.188 0.594-0.713 0.594-0.831 1.664-0.831 3.684 0 1.426 0 3.445 0.118 4.871l-0.118 0.119h-1.188l-0.119-0.119v-3.445c0-2.139 0-4.516-0.119-6.535l0.119-0.119 1.188-0.236 0.119 0.117v1.664c0-0.355 0.118-0.594 0.355-0.832 0.357-0.475 0.951-0.949 1.783-0.949 0.357 0 0.594 0 0.951 0.117l0.119 0.119zm0.95 7.246c0.356 0.238 0.594 0.477 0.951 0.713 0.713 0.357 1.544 0.357 2.02 0.357 1.069 0 2.495-0.477 2.495-1.9 0-1.309-0.832-1.545-2.139-1.902l-0.951-0.355c-1.069-0.238-2.613-0.713-2.613-2.732 0-1.307 1.069-2.852 3.802-2.852 1.188 0 1.782 0.355 2.614 0.594l0.119 0.119-0.119 1.188-0.119 0.119c-0.476-0.357-1.307-0.951-2.614-0.951-1.663 0-2.376 0.832-2.376 1.783 0 0.475 0.238 0.83 0.356 1.068 0.356 0.357 0.832 0.475 1.663 0.713l1.069 0.238c0.713 0.236 2.614 0.832 2.614 2.732 0 1.426-0.951 3.207-3.921 3.207-1.544 0-2.495-0.475-2.97-0.832l-0.119-0.117c0.119-0.477 0.119-0.596 0.119-1.189h0.119zm10.218 1.903h-1.188l-0.119-0.119v-2.496c0-1.543 0-4.988-0.119-7.484l0.119-0.119 1.188-0.236 0.119 0.117c-0.119 0.951-0.119 1.426-0.119 2.258 0 2.496 0.119 5.348 0.237 7.961zm-0.119-13.664-1.307 0.119-0.119-0.238v-1.188l0.119-0.238 1.307-0.117 0.119 0.236v1.189zm10.217 11.761-0.119 1.189-0.237 0.236c-0.951 0.713-2.139 0.713-2.732 0.713-2.376 0-4.752-1.545-4.752-5.227 0-3.09 1.664-5.584 4.99-5.584 1.307 0 2.02 0.355 2.614 0.713l0.119 0.119-0.237 1.188-0.119 0.119c-0.475-0.477-1.188-1.07-2.495-1.07-0.95 0-1.782 0.477-2.376 0.951-0.95 0.832-1.188 2.258-1.188 3.445 0 3.088 1.901 4.277 3.564 4.277 1.069 0 2.02-0.477 2.732-1.189zm2.851 1.903h-1.188l-0.119-0.119v-11.406c0-2.139-0.119-2.732-0.238-4.158l0.119-0.119 1.307-0.236 0.119 0.119v6.652c0.713-0.594 1.901-1.307 3.564-1.307 0.951 0 1.425 0.236 1.901 0.594 1.188 0.713 1.188 1.664 1.188 3.684l0.119 2.02c0 2.139 0 2.494 0.119 4.158l-0.119 0.119h-1.188l-0.119-0.119v-7.01c0-0.357-0.119-1.188-0.594-1.664-0.238-0.355-0.951-0.713-1.663-0.713-1.426 0-2.614 0.951-3.208 1.426 0 3.922 0 4.752 0.119 7.961zm10.337-6.297c0.119-0.477 0.238-1.426 0.951-2.258 0.594-0.713 1.425-1.068 2.376-1.068a3 3 0 0 1 2.495 1.307c0.475 0.713 0.475 1.424 0.475 2.02h-6.297zm7.722 0.949c-0.119-1.068-0.119-2.494-0.95-3.682-0.951-1.189-2.139-1.545-3.327-1.545-3.089 0-4.752 2.258-4.752 5.465 0 2.971 1.782 5.346 4.99 5.346 1.782 0 2.614-0.475 3.446-0.949l0.119-0.238 0.119-1.188-0.119-0.119c-0.594 0.475-1.544 1.426-3.446 1.426-0.832 0-2.613-0.357-3.445-2.258-0.356-0.832-0.475-1.545-0.475-2.139h7.723zm6.416-3.801-0.119 0.119c-0.237-0.119-0.475-0.238-0.832-0.238-0.594 0-0.95 0.238-1.307 0.594-0.594 0.594-0.713 1.664-0.713 3.684 0 1.426 0 3.445 0.119 4.871l-0.119 0.119h-1.187l-0.238-0.119c0.119-1.307 0.119-2.02 0.119-3.445 0-2.139 0-4.516-0.238-6.535l0.119-0.119 1.188-0.236 0.119 0.117v1.664c0.119-0.355 0.238-0.594 0.356-0.832 0.356-0.475 1.069-0.949 1.901-0.949 0.356 0 0.594 0 0.832 0.117l0.237 0.119zm9.505 9.149-1.068 0.117-0.119-0.117v-0.951c-0.477 0.355-1.426 1.188-3.446 1.188-0.356 0-1.663 0-2.495-0.949-0.832-0.951-0.832-2.02-0.832-2.971v-4.039c0-0.832 0-1.307-0.119-2.496l0.119-0.119h1.188l0.119 0.119v5.703c0 1.664 0 2.377 0.594 2.971 0.356 0.475 0.95 0.713 1.782 0.713h0.832c1.069-0.238 1.664-0.713 2.258-1.307 0-4.041 0-4.871-0.119-8.08l0.119-0.119h1.068l0.119 0.119v3.684c0 2.613 0 4.158 0.119 6.416zm4.277 0h-1.188l-0.119-0.119v-5.584c0-2.258-0.119-2.852-0.238-4.396l0.119-0.119 1.188-0.236 0.119 0.117v1.07c0.832-0.475 2.02-1.307 3.564-1.307 0.475 0 1.545 0 2.494 0.951 0.713 0.83 0.713 1.781 0.713 3.326v2.02c0 2.139 0.119 2.494 0.119 4.158l-0.119 0.119h-1.188l-0.119-0.119v-7.01c0-0.475-0.117-1.188-0.475-1.664a2.488 2.488 0 0 0-1.783-0.713c-1.426 0-2.613 0.951-3.207 1.426 0 3.326 0 4.158 0.238 7.961zm11.643-0.951c0.951 0.355 2.139 0.594 2.971 0.951 0.475 0.117 1.426 0.475 1.426 1.781 0 1.068-0.832 2.258-2.852 2.258-2.377 0-3.09-1.426-3.09-2.377 0-1.307 0.951-2.139 1.545-2.613zm0.357-2.377c0.355 0.119 0.713 0.119 1.068 0.119 2.02 0 3.684-1.426 3.684-3.445 0-1.662-0.951-2.375-1.307-2.732l2.02 0.119 0.119-0.119 0.119-0.832-0.119-0.119h-3.564c-1.307 0-2.613 0-3.803 0.832-0.355 0.477-1.188 1.309-1.188 2.732 0 2.02 1.068 2.615 1.9 3.209-0.475 0.713-0.594 0.949-1.188 1.781l0.119 0.119 0.832 0.475c-0.596 0.477-1.902 1.426-1.902 2.971 0 2.258 2.258 3.326 4.277 3.326 2.258 0 4.396-1.307 4.396-3.445 0-1.068-0.594-2.02-1.9-2.613-0.477-0.238-0.832-0.357-2.377-0.713l-1.781-0.594zm3.565-3.446c0 1.307-0.832 2.615-2.615 2.615-1.307 0-2.613-0.713-2.613-2.496 0-1.426 0.832-2.732 2.732-2.732 1.663 0 2.496 1.307 2.496 2.613zm3.207 4.871c0.238 0.238 0.475 0.477 0.951 0.713 0.713 0.357 1.426 0.357 2.02 0.357 1.068 0 2.494-0.477 2.494-1.9 0-1.309-0.949-1.545-2.139-1.902l-0.949-0.355c-1.07-0.238-2.615-0.713-2.615-2.732 0-1.307 1.07-2.852 3.803-2.852 1.068 0 1.781 0.355 2.613 0.594l0.119 0.119-0.238 1.188v0.119c-0.594-0.357-1.307-0.951-2.732-0.951-1.545 0-2.375 0.832-2.375 1.783 0 0.475 0.236 0.83 0.475 1.068 0.355 0.357 0.713 0.475 1.664 0.713l1.068 0.238c0.713 0.236 2.613 0.832 2.613 2.732 0 1.426-0.949 3.207-4.039 3.207-1.545 0-2.494-0.475-2.971-0.832l-0.117-0.117c0.117-0.477 0.117-0.596 0.117-1.189h0.238zm10.929 0.952c0.951 0.355 2.139 0.594 2.971 0.951 0.357 0.117 1.426 0.475 1.426 1.781 0 1.068-0.832 2.258-2.971 2.258-2.258 0-3.088-1.426-3.088-2.377 0-1.307 1.069-2.139 1.662-2.613zm0.358-2.377c0.355 0.119 0.713 0.119 1.068 0.119 2.021 0 3.684-1.426 3.684-3.445 0-1.662-0.951-2.375-1.307-2.732l2.02 0.119 0.119-0.119 0.119-0.832-0.119-0.119h-3.564c-1.307 0-2.732 0-3.801 0.832-0.477 0.477-1.189 1.309-1.189 2.732 0 2.02 1.07 2.615 1.9 3.209-0.475 0.713-0.594 0.949-1.188 1.781l0.119 0.119 0.832 0.475c-0.713 0.477-1.9 1.426-1.9 2.971 0 2.258 2.256 3.326 4.275 3.326 2.258 0 4.277-1.307 4.277-3.445 0-1.068-0.594-2.02-1.781-2.613-0.475-0.238-0.832-0.357-2.377-0.713l-1.9-0.594zm3.564-3.446c0 1.307-0.951 2.615-2.613 2.615-1.309 0-2.732-0.713-2.732-2.496 0-1.426 0.949-2.732 2.732-2.732 1.781 0 2.613 1.307 2.613 2.613zm8.436-2.375-0.119 0.119c-0.357-0.119-0.594-0.238-0.832-0.238-0.594 0-0.951 0.238-1.307 0.594-0.713 0.594-0.832 1.664-0.832 3.684 0 1.426 0.119 3.445 0.119 4.871l-0.119 0.119h-1.188l-0.119-0.119c0.119-1.307 0.119-2.02 0.119-3.445 0-2.139 0-4.516-0.238-6.535l0.119-0.119 1.188-0.236 0.119 0.117v1.664c0.119-0.355 0.238-0.594 0.357-0.832 0.355-0.475 1.068-0.949 1.9-0.949 0.238 0 0.594 0 0.832 0.117l0.117 0.119zm9.504 9.149-1.068 0.117-0.119-0.117v-0.951c-0.477 0.355-1.426 1.188-3.445 1.188-0.357 0-1.664 0-2.496-0.949-0.832-0.951-0.832-2.02-0.949-2.971v-6.535l0.117-0.119h1.189l0.119 0.119c-0.119 1.902-0.119 3.803-0.119 5.703 0 1.664 0.119 2.377 0.713 2.971 0.355 0.475 0.951 0.713 1.781 0.713h0.713c1.188-0.238 1.783-0.713 2.377-1.307 0-4.041-0.119-4.871-0.238-8.08l0.119-0.119h1.188l0.119 0.119v3.684c0 2.613 0 4.158 0.119 6.416zm4.039-8.198c0.357-0.238 0.477-0.477 0.951-0.715 0.594-0.355 1.307-0.475 1.9-0.475 2.496 0 3.326 2.258 3.326 3.92 0 2.139-1.307 3.209-1.781 3.564-0.951 0.713-2.139 0.832-3.326 0.832h-1.07zm-1.426-1.902c0.119 2.02 0.119 3.564 0.119 7.723v7.01l0.119 0.119h1.188l0.119-0.119c-0.119-2.02-0.119-2.494-0.119-4.633h1.307c2.734 0 4.158-0.832 5.109-2.021 0.832-1.068 1.189-2.494 1.189-3.562 0-2.852-1.783-4.99-4.516-4.99-1.664 0-2.496 0.713-3.09 1.188v-0.951l-0.117-0.117-1.189 0.236zm12.357 1.902c0.236-0.238 0.475-0.477 0.949-0.715 0.594-0.355 1.189-0.475 1.902-0.475 2.494 0 3.326 2.258 3.326 3.92 0 2.139-1.307 3.209-1.783 3.564-0.949 0.713-2.139 0.832-3.326 0.832h-1.068zm-1.427-1.902c0.119 2.02 0.119 3.564 0.119 7.723v7.01l0.119 0.119h1.189l0.117-0.119c-0.117-2.02-0.117-2.494-0.117-4.633h1.188c2.852 0 4.277-0.832 5.227-2.021 0.832-1.068 1.07-2.494 1.07-3.562 0-2.852-1.664-4.99-4.396-4.99-1.662 0-2.494 0.713-3.088 1.188v-0.951l-0.119-0.117-1.189 0.236zm11.882 3.803c0.119-0.477 0.236-1.426 0.949-2.258 0.594-0.713 1.426-1.068 2.377-1.068 0.475 0 1.664 0.117 2.494 1.307 0.477 0.713 0.477 1.424 0.477 2.02h-6.297zm7.723 0.949c0-1.068-0.119-2.494-0.951-3.682-0.951-1.189-2.139-1.545-3.326-1.545-3.09 0-4.752 2.258-4.752 5.465 0 2.971 1.781 5.346 4.988 5.346 1.783 0 2.615-0.475 3.445-0.949l0.119-0.238 0.119-1.188-0.119-0.119c-0.475 0.475-1.543 1.426-3.445 1.426-0.832 0-2.494-0.357-3.445-2.258-0.355-0.832-0.475-1.545-0.475-2.139h7.723z" clip-rule="evenodd" fill-rule="evenodd"/>
</svg>
