<?xml version="1.0" encoding="UTF-8"?>
<svg width="2279.4" height="1109.7" version="1.1" viewBox="0 0 175.75 85.56" xmlns="http://www.w3.org/2000/svg" xmlns:cc="http://creativecommons.org/ns#" xmlns:dc="http://purl.org/dc/elements/1.1/" xmlns:rdf="http://www.w3.org/1999/02/22-rdf-syntax-ns#">
 <metadata>
  <rdf:RDF>
   <cc:Work rdf:about="">
    <dc:format>image/svg+xml</dc:format>
    <dc:type rdf:resource="http://purl.org/dc/dcmitype/StillImage"/>
    <dc:title/>
   </cc:Work>
  </rdf:RDF>
 </metadata>
 <path d="m11.539 69.682h-11.539s2.169-1.085 2.169-3.156v-34.321c0-2.367-2.169-2.958-2.169-2.958h24.163v6.805s-0.592-2.269-2.465-2.269h-12.328v11.145h12.525v6.213s-0.395-1.479-2.169-1.479h-10.356v16.767c-1e-3 2.267 2.169 3.253 2.169 3.253zm148.04 0.772c-8.496-0.029-14.4-5.213-14.4-10.535v-27.714c0-1.973-2.367-2.958-2.367-2.958h11.639s-2.367 0.986-2.367 2.86v27.812c0 2.657 3.715 6.066 7.299 6.041 3.516-0.024 7.1-3.355 7.1-6.041v-27.763c0-2.071-2.365-2.86-2.365-2.86h11.637s-2.367 0.789-2.367 2.86v27.763c-2e-3 5.178-5.889 10.561-13.809 10.535zm-117.17 0c-8.496-0.029-14.399-5.213-14.399-10.535v-27.714c0-1.973-2.367-2.958-2.367-2.958h11.638s-2.367 0.986-2.367 2.86v27.812c0 2.657 3.714 6.066 7.298 6.041 3.517-0.024 7.101-3.355 7.101-6.041v-27.812c0-2.071-2.367-2.86-2.367-2.86h11.637s-2.367 0.789-2.367 2.86v27.812c0 5.178-5.886 10.561-13.807 10.535zm30.771-41.208s-2.367 0.986-2.367 3.057v42.605s-0.121 7.396-12.624 10.651c-0.257 0.067 5.622-6.213 5.622-10.651 0-2.959 0.071-41.029 0-42.605-0.098-2.17-2.367-3.057-2.367-3.057zm11.835 37.28c0.099 2.17 2.367 3.057 2.367 3.057h-11.736s2.366-0.985 2.366-3.057h0.012c0.017-12.226 0.04-33.081-0.012-34.223-0.099-2.17-2.366-3.057-2.366-3.057h11.736s-2.367 0.986-2.367 3.057zm21.302-32.743v32.744c0.1 2.17 2.367 3.057 2.367 3.057h-11.736s2.367-0.985 2.367-3.057h0.012c0.014-10.502 0.033-27.473 6e-3 -32.743h-7.809c-2.467 0-3.847 2.761-3.847 2.761l2.366-7.298h27.518l-1.678 6.707s-0.098-2.17-2.465-2.17zm-34.204-16.624c1.418 3.086 5.45 5.435 9.746 5.435 6.239 0 11.296-5.058 11.296-11.297s-5.057-11.297-11.296-11.297c-3.4 0-6.45 1.501-8.521 3.879l0.077 5.984c0.359-4.104 4.815-6.425 8.444-6.327 4.289 0.116 7.769 3.479 7.769 7.769s-3.479 7.77-7.769 7.77c-2.758 0-5.132-1.487-6.51-3.653l-0.359-0.691c-1.549-2.872-4.692-5.086-8.319-5.086a9.344 9.344 0 0 0-9.345 9.345 9.344 9.344 0 0 0 9.345 9.345 9.33 9.33 0 0 0 7.307-3.519v-4.198l-3.373 2.806c-1.008 0.695-2.482 1.285-3.934 1.285a5.719 5.719 0 0 1 0-11.436c2.336 0 4.251 1.452 5.375 3.763zm66.503 18.399v-4.98c0-0.69-4.512-1.723-7.371-1.751-2.07-0.021-14.078 0.467-14.078 10.972 0 8.629 9.072 12.032 10.256 12.624s7.84 3.551 7.84 7.102c0 4.635-3.943 6.953-8.678 6.953s-8.586-3.068-9.666-3.995c-0.084-0.071 1.629 7.101 1.629 7.101s4.277 1.085 7.889 1.085c1.678 0 15.879 0 15.879-11.243 0-8.53-8.729-11.587-10.453-12.426-1.588-0.771-7.744-3.156-7.744-7.594 0-3.55 4.242-6.509 7.398-6.509 4.443-2e-3 6.015 1.429 7.099 2.661z" clip-rule="evenodd" fill="#cf4037" fill-rule="evenodd"/>
</svg>
