<?xml version="1.0" encoding="UTF-8"?>
<svg width="2149.5" height="1023.7" version="1.1" viewBox="0 0 165.73 78.932" xmlns="http://www.w3.org/2000/svg" xmlns:cc="http://creativecommons.org/ns#" xmlns:dc="http://purl.org/dc/elements/1.1/" xmlns:rdf="http://www.w3.org/1999/02/22-rdf-syntax-ns#">
 <metadata>
  <rdf:RDF>
   <cc:Work rdf:about="">
    <dc:format>image/svg+xml</dc:format>
    <dc:type rdf:resource="http://purl.org/dc/dcmitype/StillImage"/>
    <dc:title/>
   </cc:Work>
  </rdf:RDF>
 </metadata>
 <path d="m39.467 78.932c21.796 0 39.467-17.67 39.467-39.466s-17.67-39.466-39.467-39.466-39.467 17.67-39.467 39.466 17.67 39.466 39.467 39.466z" fill="#a70b52"/>
 <g fill="#fff">
  <path d="m49.077 53.355h-8.173v-30.89h-3.031v33.938h3.031v-0.02h8.173z"/>
  <path d="m69.477 40.73h-20.352v-3.031h23.333c0.031 0.586 0.046 1.173 0.046 1.767 0 18.247-14.792 33.038-33.038 33.038s-33.038-14.791-33.038-33.038 14.792-33.038 33.039-33.038c0.481 0 0.961 0.01 1.438 0.031l-4e-3 3.008a31.023 31.023 0 0 0-1.434-0.033c-16.586 0-30.033 13.446-30.033 30.032 0 16.587 13.446 30.032 30.033 30.032 16.134 0 29.296-12.722 30.002-28.683z"/>
  <path d="m27.143 31.609a4.6425 4.6425 0 1 0 0-9.285 4.6425 4.6425 0 0 0 0 9.285z"/>
 </g>
 <path d="m98.531 58.838h28.201v-8.517h-17.847v-30.498h-10.354zm62.274-36.268c-3.233-2.505-7.396-3.775-12.364-3.775-5.899 0-10.828 1.812-14.255 5.236-3.577 3.579-5.471 8.851-5.471 15.246 0 6.832 2.002 12.597 5.637 16.229 2.854 2.853 6.656 4.358 11.007 4.358 9.551 0 11.748-5.725 11.748-5.725v4.697h8.625v-22.034h-17.169v6.895h7.902s0.076 8.681-8.08 8.681c-2.072 0-3.918-0.752-5.338-2.172-2.213-2.211-3.383-5.937-3.383-10.767 0-8 3.18-12.776 8.504-12.776 3.326 0 5.826 2.042 6.467 5.137h10.984c-0.569-4.497-1.803-6.841-4.814-9.23z" fill="#808183"/>
</svg>
