<?xml version="1.0" encoding="UTF-8"?>
<svg width="1861.7" height="1251.2" version="1.1" viewBox="0 0 143.54 96.47" xmlns="http://www.w3.org/2000/svg" xmlns:cc="http://creativecommons.org/ns#" xmlns:dc="http://purl.org/dc/elements/1.1/" xmlns:rdf="http://www.w3.org/1999/02/22-rdf-syntax-ns#">
 <metadata>
  <rdf:RDF>
   <cc:Work rdf:about="">
    <dc:format>image/svg+xml</dc:format>
    <dc:type rdf:resource="http://purl.org/dc/dcmitype/StillImage"/>
    <dc:title/>
   </cc:Work>
  </rdf:RDF>
 </metadata>
 <path d="m0 95.959 3.509-11.935h6.043l1.526 5.1 4.384-5.124h6.414l-3.338 11.948-4.847 0.017 1.771-6.164-5.625 6.164h-2.383l-1.736-6.594-1.951 6.594zm42.688-11.961 14.889 0.026-0.894 3.854h-5.112l-2.1 8.081-4.712 6e-3 1.959-8.053h-5.032zm39.934 0.022v2.775h8e-3l-0.58 2.309h5.104s1.24-0.215 1.311-1.346c0.059-1.001-0.873-0.931-0.873-0.931l-4.969-0.018v-2.786l7.689-4e-3s3.291 0.249 2.971 3.097c-0.33 2.846-3.355 3.754-3.355 3.754s-0.184 0.182-0.041 0.289c0.143 0.105 1.273 0.318 1.416 1.383 0.143 1.067-0.371 1.843-0.371 2.166 0 0.317 0.033 0.957 0.438 1.24h-4.859s-0.867-0.133-0.793-1.028c0.072-0.885 0.113-1.664 0.113-1.664s-0.072-0.929-1.375-0.818l-3.553-0.035-1.012 3.557h-4.457l3.393-11.939h3.795zm33.748 0h4.56l-2.209 8.659h7.504l-0.871 3.29h-12.1zm24.435-0.01 2.736 11.955h-4.744l-0.502-2.072-0.017-0.04h-5.748l-0.02 0.018-1.388 2.088-4.018 6e-3 8.113-11.955 1.572 3.524-2.353 3.484 0.068 0.025h3.049l0.055-6e-3 -0.819-3.503-1.572-3.524zm-108.3 2.656c1.447 0 2.872 0.716 3.097 1.755 0.687 3.323-2.857 4.746-2.441 4.537-2.039 1.011-5.137 0.687-5.501-1.408-0.345-2.014 1.21-3.997 2.519-4.47 0.896-0.323 1.635-0.46 2.326-0.414l0.01-0.031 0.017-3.098c-0.937 0.019-1.992 0.135-2.824 0.298-3.573 0.685-8.076 3.931-7.283 8.04 0.668 3.473 5.379 5.337 10.661 4.316 4.953-0.951 8.196-4.765 7.499-8.148-0.67-3.273-4.547-4.506-8.053-4.506v2.679zm34.63 0c1.445 0 2.875 0.716 3.087 1.755 0.7 3.323-2.848 4.746-2.425 4.537-2.042 1.011-5.143 0.687-5.504-1.408-0.35-2.014 1.206-3.997 2.518-4.47 0.893-0.323 1.642-0.46 2.324-0.414l0.01-0.031 0.02-3.098a17.62 17.62 0 0 0-2.83 0.298c-3.57 0.685-8.08 3.931-7.287 8.04 0.667 3.473 5.39 5.337 10.663 4.316 4.958-0.951 8.206-4.765 7.506-8.148-0.672-3.273-4.548-4.506-8.053-4.506v2.679zm37.648-0.031c1.445 0.08 2.861 0.747 3.082 1.786 0.691 3.323-2.854 4.746-2.428 4.537-2.043 1.011-5.143 0.687-5.506-1.408-0.348-2.014 1.203-3.997 2.518-4.47 1.076-0.391 1.496-0.5 2.334-0.445l0.02-3.098a17.73 17.73 0 0 0-2.83 0.298c-3.564 0.685-8.07 3.931-7.281 8.04 0.668 3.473 5.387 5.337 10.664 4.316 4.953-0.951 8.201-4.765 7.496-8.148-0.668-3.273-4.545-4.506-8.049-4.506v2.679zm-32.96-86.635c20.143 0 35.999 16.224 35.999 35.985 0 19.878-16.121 35.988-35.999 35.988s-35.988-16.11-35.988-35.988 16.111-35.985 35.988-35.985zm-0.08 43.53-10.068-33.4-13.035 42.763h2.446s1.647-7.439 4.315-11.883c1.457-2.409 3.7-4.382 6.7-4.326 2.114 0.038 3.942 1.196 6.228 4.386 1.374 1.919 3.49 6.801 3.49 6.801s2.116-4.875 3.495-6.801c2.277-3.19 4.107-4.348 6.225-4.386 2.994-0.057 5.246 1.917 6.697 4.33 2.674 4.439 4.316 11.878 4.316 11.878h2.451l-13.043-42.763-10.068 33.401-0.068 0.061z" clip-rule="evenodd" fill-rule="evenodd"/>
</svg>
