<?xml version="1.0" encoding="UTF-8"?>
<svg width="2279.4" height="336.38" version="1.1" viewBox="0 0 175.75 25.936" xmlns="http://www.w3.org/2000/svg" xmlns:cc="http://creativecommons.org/ns#" xmlns:dc="http://purl.org/dc/elements/1.1/" xmlns:rdf="http://www.w3.org/1999/02/22-rdf-syntax-ns#">
 <metadata>
  <rdf:RDF>
   <cc:Work rdf:about="">
    <dc:format>image/svg+xml</dc:format>
    <dc:type rdf:resource="http://purl.org/dc/dcmitype/StillImage"/>
    <dc:title/>
   </cc:Work>
  </rdf:RDF>
 </metadata>
 <path d="m42.079 7.43h6.501l0.286 2.143c0.5-1.714 3.787-2.929 5.787-2.929 4.644 0 6.501 2.858 6.501 7.859v10.787h-7.215v-9.645c0-1.928-0.357-3.357-2.286-3.357-1.786 0-2.715 1.929-2.715 3.287v9.715h-6.858v-17.86zm-42.079 17.932v-25.29h12.073c7.216 0 10.502 3.5 10.502 8.573 0 5.431-3 9.146-10.502 9.146h-4.072v7.572h-8.001zm11.217-13.717c1.929 0 4-0.429 4-2.643 0-2.286-2.214-2.786-4-2.786h-3.215v5.429zm110.31-4.215h6.572l0.215 2.143c0.572-1.714 3.857-2.929 5.859-2.929 4.572 0 6.5 2.858 6.5 7.859v10.859h-7.215v-9.717c0-1.928-0.43-3.357-2.357-3.357-1.715 0-2.645 1.929-2.645 3.287v9.787h-6.93v-17.932zm-33.148 11.503c0 0.715 0.357 1.785 0.785 2.143 0.5 0.357 1.143 0.715 1.93 0.715 1.285 0 2.285-0.357 2.285-1.572 0.072-3-10.859-0.357-10.859-7.501 0-5 3.859-6.144 7.859-6.144s9.502 0.786 9.287 6.215h-6.072c0-0.5-0.215-0.857-0.5-1.286-0.43-0.5-0.93-0.714-1.857-0.786-1.215-0.071-2.357 0.143-2.357 1.072 0.07 2.787 11.287 0.929 11.287 7.502 0 4.572-3.215 6.645-9.43 6.645-3.93-0.072-8.859-2.072-8.859-7.002h6.501zm73.941-4.573c0-0.43 0-1-0.57-1.715-0.287-0.357-0.93-1.143-1.93-1.143-2.715 0-3.43 2.643-3.43 4.788 0 2.5 1.145 4.572 3.287 4.572 1.857 0 2.787-1.715 2.787-3.145h6.287c0.143 3.715-2.43 8.145-9.359 8.145-5.645 0-9.645-3.93-9.645-9.645 0-6.93 5.143-9.574 9.572-9.574 6.002 0 9.432 3.644 9.359 7.716h-6.358zm-127.88 11.002-0.714-1.5c-1.357 1.143-2.786 1.785-5.072 1.785-2.215-0.07-6.573-0.357-6.573-5.143 0-7.859 11.717-4.287 11.717-8.145 0-1.286-1.429-1.215-2.215-1.215-1.429 0-2.357 0.286-2.572 2.428h-6.001c0-3.714 1.144-6.857 9.002-6.857 7.645 0 8.43 4 8.43 7.93v8.145c0 1.072 0.072 1.572 0.786 2.357v0.143zm-0.571-8.216c-2.429 1.145-5.501 1.072-5.572 2.859 0 1.143 0.643 1.713 2.072 1.713 2.357 0 3.643-2.428 3.5-4.572zm40.865 8.216-0.714-1.5c-1.357 1.143-2.858 1.785-5.073 1.785-2.286-0.07-6.644-0.357-6.644-5.143 0-7.859 11.717-4.287 11.788-8.145 0-1.286-1.5-1.215-2.214-1.215-1.5 0-2.358 0.286-2.572 2.428h-6.001c0-3.714 1.071-6.857 9.001-6.857 7.573 0 8.359 4 8.359 7.93v8.145c0 1.072 0.071 1.572 0.786 2.357v0.143zm-0.572-8.216c-2.429 1.145-5.573 1.072-5.573 2.859 0 1.143 0.571 1.713 2.072 1.713 2.287 0 3.644-2.428 3.501-4.572zm74.442 8.216v-17.932h-6.643v17.932zm-6.642-20.218h6.643v-5.144h-6.643zm-31.151 1.643c5.93 0 9.574 4.144 9.574 9.573 0 5.502-3.645 9.574-9.574 9.574s-9.645-4.072-9.645-9.574c1e-3 -5.429 3.716-9.573 9.645-9.573zm-3.142 9.573c0 2.215 0.715 4.93 3.143 5.002 2.43 0 3.072-2.787 3.072-5.002 0-2.143-0.643-4.929-3.072-4.929-2.428 0-3.071 2.787-3.143 4.929zm65.299 5.502c0.428 0 1.07 0.07 1.07-0.5 0-0.5-0.428-0.572-0.785-0.572h-0.857v1.072zm1.427 1.715h-0.428l-0.857-1.43h-0.715v1.43h-0.357v-3.072h1.287c0.574 0 1.084 0.172 1.084 0.857 0 0.57-0.371 0.785-0.941 0.785zm1.038-1.465c0-1.357-1.072-2.43-2.357-2.43a2.41 2.41 0 0 0-2.43 2.43c0 1.285 1.072 2.357 2.43 2.357a2.378 2.378 0 0 0 2.357-2.357zm-5.11-0.037a2.715 2.715 0 1 1 5.43 0c0 1.502-1.215 2.715-2.715 2.715s-2.715-1.213-2.715-2.715z" clip-rule="evenodd" fill="#2866ad" fill-rule="evenodd"/>
</svg>
