<?xml version="1.0" encoding="UTF-8"?>
<!-- Generator: Adobe Illustrator 23.0.6, SVG Export Plug-In . SVG Version: 6.00 Build 0)  -->
<svg width="137.8" height="29.53" version="1.1" viewBox="0 0 137.8 29.53" xml:space="preserve" xmlns="http://www.w3.org/2000/svg" xmlns:cc="http://creativecommons.org/ns#" xmlns:dc="http://purl.org/dc/elements/1.1/" xmlns:rdf="http://www.w3.org/1999/02/22-rdf-syntax-ns#"><metadata><rdf:RDF><cc:Work rdf:about=""><dc:format>image/svg+xml</dc:format><dc:type rdf:resource="http://purl.org/dc/dcmitype/StillImage"/><dc:title/></cc:Work></rdf:RDF></metadata>
<style type="text/css">
	.st0{fill-rule:evenodd;clip-rule:evenodd;}
</style>
<path class="st0" d="m21.7 9.18c0 2.41-0.81 4.15-2.43 5.24-1.19 0.79-2.7 1.19-4.54 1.19h-11.76v7.07c0 1.05-0.35 1.57-1.05 1.57h-0.88c-0.69 0-1.04-0.52-1.04-1.57v-21.13c0-1.03 0.35-1.55 1.04-1.55h13.83c1.59 0 3 0.34 4.23 1.02 1.73 0.96 2.6 2.42 2.6 4.39zm-2.94-0.16v-3.31c0-1.4-1.29-2.1-3.86-2.1h-11.93v8.36h11.94c1.21 0 2.1-0.17 2.69-0.51 0.77-0.45 1.16-1.26 1.16-2.44zm13.55-1.87c0 1.03-0.42 1.55-1.25 1.55h-1.53c-2.5 0-3.75 0.79-3.75 2.38v11.6c0 1.05-0.41 1.57-1.23 1.57h-0.92c-0.82 0-1.23-0.53-1.23-1.59l0.05-11.58c0.01-2.14 0.85-3.73 2.51-4.75 1.27-0.78 2.87-1.18 4.77-1.18h1.34c0.83 0 1.25 0.52 1.25 1.57v0.43zm19.01 7.88c0 1.16-0.29 1.74-0.85 1.74h-15.17c0 2.63 1.32 3.95 3.96 3.95h2.28c0.75 0 1.13 0.52 1.13 1.57v0.38c0 1.05-0.38 1.57-1.13 1.57h-1.95c-1.95 0-3.55-0.36-4.78-1.06-1.77-1.01-2.65-2.67-2.65-4.98v-7.02c0-2.2 0.88-3.84 2.63-4.9 1.27-0.77 2.83-1.16 4.69-1.16h5.7c1.54 0 2.87 0.36 3.97 1.08 1.46 0.95 2.19 2.35 2.19 4.22v4.61zm-2.97-1.9v-2.35c0-0.72-0.59-1.27-1.76-1.67-0.83-0.28-1.61-0.41-2.36-0.41h-4.42c-3.07 0-4.61 0.74-4.61 2.23v2.19h13.15zm24.89-4.34v13.88c0 1.05 0.35 1.57 1.04 1.57h0.74c0.69 0 1.04-0.52 1.04-1.57v-13.84h4.46c0.7 0 1.05-0.52 1.05-1.57v-0.4c0-1.03-0.35-1.55-1.05-1.55h-4.46v-3.76c0-1.03-0.35-1.55-1.04-1.55h-0.74c-0.69 0-1.04 0.52-1.04 1.55v3.76h-13.92c-4.34 0-6.52 1.77-6.52 5.04v0.75c0 2.16 0.8 3.65 2.4 4.47 1 0.51 2.46 0.77 4.37 0.77h4.91c1.72 0 2.59 0.58 2.59 1.74v0.72c0 1.28-0.94 1.93-2.83 1.93h-10.25c-0.74 0-1.11 0.52-1.11 1.57v0.38c0 1.05 0.37 1.57 1.11 1.57h10.22c3.99 0 5.99-1.82 5.99-5.45v-0.87c0-3.44-1.86-5.17-5.59-5.17h-5.01c-1.31 0-2.23-0.1-2.76-0.3-0.67-0.25-1.01-0.72-1.01-1.4v-0.67c0-0.69 0.5-1.37 1.51-1.54 0.22-0.04 0.9-0.06 2.04-0.06zm14.36 13.89c0 1.05-0.35 1.57-1.05 1.57h-0.7c-0.7 0-1.05-0.52-1.05-1.57v-14.43c0-1.03 0.35-1.55 1.05-1.55h0.7c0.7 0 1.05 0.52 1.05 1.55zm0.4-18.54c0 0.68-0.19 1.23-0.59 1.63-0.33 0.37-0.74 0.55-1.21 0.55-0.48 0-0.89-0.18-1.25-0.55-0.41-0.4-0.61-0.94-0.61-1.63 0-0.68 0.2-1.22 0.61-1.63 0.35-0.35 0.77-0.53 1.25-0.53s0.89 0.17 1.23 0.53c0.38 0.4 0.57 0.94 0.57 1.63zm21.88 19.49c0 2.19-1 3.8-3 4.82-1.4 0.72-3.04 1.08-4.93 1.08h-1.27c-0.75 0-1.13-0.52-1.13-1.55v-0.42c0-1.03 0.38-1.55 1.13-1.55h2.2c0.53 0 1.28-0.2 2.25-0.61 1.09-0.45 1.64-0.89 1.64-1.3h-8.3c-1.94 0-3.55-0.34-4.82-1.02-1.85-0.99-2.77-2.62-2.77-4.88v-7.08c0-2.01 0.74-3.55 2.23-4.62 1.25-0.9 2.76-1.34 4.55-1.34h4.46c1.91 0 3.54 0.37 4.89 1.1 1.92 1.04 2.88 2.67 2.88 4.9v12.47zm-3.06-3.03v-9.27c0-0.96-0.57-1.68-1.7-2.16-0.78-0.33-1.62-0.49-2.51-0.49h-4.79c-1.11 0-1.91 0.09-2.41 0.25-1.01 0.33-1.51 1.03-1.51 2.1v7.12c0 1.64 1.5 2.46 4.5 2.46h8.42zm9.61 2.08c0 1.05-0.35 1.57-1.05 1.57h-0.7c-0.7 0-1.05-0.52-1.05-1.57v-14.43c0-1.03 0.35-1.55 1.05-1.55h0.7c0.7 0 1.05 0.52 1.05 1.55zm0.39-18.54c0 0.68-0.2 1.23-0.58 1.63-0.34 0.37-0.74 0.55-1.21 0.55-0.48 0-0.89-0.18-1.26-0.55-0.41-0.4-0.61-0.94-0.61-1.63 0-0.68 0.2-1.22 0.61-1.63 0.35-0.35 0.77-0.53 1.26-0.53 0.48 0 0.89 0.17 1.23 0.53 0.37 0.4 0.56 0.94 0.56 1.63zm20.98 14.19c0 2.21-0.8 3.83-2.4 4.86-1.09 0.7-2.51 1.06-4.25 1.06h-4.99c-3.22 0-5.34-1.12-6.39-3.35-0.38-0.81-0.57-1.66-0.57-2.57v-7.04c0-1.55 0.52-2.89 1.55-4.03 1.27-1.4 3.06-2.1 5.39-2.1h5c4.44 0 6.66 2.03 6.66 6.09zm-3.05 0v-7.35c0-1.52-1.23-2.27-3.69-2.27h-4.88c-0.88 0-1.68 0.15-2.39 0.45-1.06 0.46-1.59 1.17-1.59 2.14v7.04c0 0.93 0.54 1.6 1.62 2 0.7 0.27 1.49 0.4 2.38 0.4h4.88c0.77 0 1.51-0.15 2.2-0.45 0.98-0.45 1.47-1.09 1.47-1.96z" clip-rule="evenodd" fill-rule="evenodd"/>
</svg>
