<?xml version="1.0" encoding="UTF-8"?>
<svg width="2279.4" height="339.84" version="1.1" viewBox="0 0 175.75 26.203" xmlns="http://www.w3.org/2000/svg" xmlns:cc="http://creativecommons.org/ns#" xmlns:dc="http://purl.org/dc/elements/1.1/" xmlns:rdf="http://www.w3.org/1999/02/22-rdf-syntax-ns#">
 <metadata>
  <rdf:RDF>
   <cc:Work rdf:about="">
    <dc:format>image/svg+xml</dc:format>
    <dc:type rdf:resource="http://purl.org/dc/dcmitype/StillImage"/>
    <dc:title/>
   </cc:Work>
  </rdf:RDF>
 </metadata>
 <path d="m173.06 21.338a2.204 2.204 0 1 0 0 4.408 2.199 2.199 0 0 0 2.197-2.209 2.197 2.197 0 0 0-2.197-2.199zm0 4.143a1.936 1.936 0 0 1-1.938-1.943 1.935 1.935 0 0 1 3.87 0 1.934 1.934 0 0 1-1.932 1.943z" clip-rule="evenodd" fill="#cc2229" fill-rule="evenodd"/>
 <path d="m174.2 22.959c0-0.207-0.092-0.426-0.275-0.529-0.186-0.111-0.393-0.123-0.602-0.123h-1.072v2.463h0.301v-1.135h0.553l0.703 1.135h0.359l-0.744-1.135c0.437-0.012 0.777-0.191 0.777-0.676zm-1.187 0.44h-0.461v-0.871h0.703c0.305 0 0.641 0.045 0.641 0.426-1e-3 0.501-0.538 0.445-0.883 0.445zm-14.549-23.186c-2.578 0-9.826 0.269-14.605 0.966v24.054h7.674v-8.699c0.967 0.322 6.502 0.859 8.434 0.859 1.934 0 15.785-0.592 15.785-8.805-1e-3 -8.805-14.712-8.375-17.288-8.375zm0.428 12.992c-2.469 0-5.318-0.215-7.359-0.967v-7.409c2.578-0.215 6.662-0.376 7.844-0.376s7.303 0.269 7.355 4.242c0.052 4.133-5.37 4.51-7.84 4.51zm-132.31-2.36c-2.073-0.463-9.878-1.718-11.919-1.986-2.685-0.322-4.241-0.805-4.241-2.309 0-2.04 3.968-1.688 7.195-1.558 3.973 0.162 11.436 2.631 13.583 3.544l2.523-5.53c-4.134-2.041-12.08-3.006-17.126-3.006-3.652 0.053-15.85 0.914-16 7.408-0.107 4.618 3.935 6.293 9.073 7.571 4.402 0.912 9.289 1.342 12.618 2.041 4.264 0.893 4.242 3.918 0.859 4.24-5.837 0.426-15.731-2.469-20.241-4.725l-2.9 5.906c6.281 3.061 15.998 3.801 19.329 3.76 4.295-0.055 15.677-0.484 15.677-7.303-2e-3 -4.487-3.867-7.033-8.43-8.053zm34.057-0.322h-15.891v-9.342h-8.162v24.054h8.162v-9.879h15.891v9.879h8.161v-24.054h-8.161zm33.309-9.342h-10.04l-14.12 24.053h6.334l3.275-5.477h15.931l3.291 5.477h9.824zm-11.759 13.745 5.048-8.644 5.191 8.644zm59.296-6.714c-0.057-8.805-14.979-7.999-17.557-7.999-2.576 0-9.824 0.269-14.604 0.966v24.054h7.789v-20.403c2.791-0.215 6.762-0.376 7.941-0.376 1.182 0 7.25-0.214 7.303 4.135 0.051 4.134-5.637 4.188-8.107 4.188-1.557 0-2.846-0.322-4.188-0.645l-1.449 2.471 12.025 10.631h11.537l-10.469-9.207c4.445-0.892 9.811-2.97 9.779-7.815z" clip-rule="evenodd" fill="#cc2229" fill-rule="evenodd"/>
</svg>
