<?xml version="1.0" encoding="UTF-8"?>
<svg width="2426.6" height="423.18" version="1.1" viewBox="0 0 187.09 32.626" xmlns="http://www.w3.org/2000/svg" xmlns:cc="http://creativecommons.org/ns#" xmlns:dc="http://purl.org/dc/elements/1.1/" xmlns:rdf="http://www.w3.org/1999/02/22-rdf-syntax-ns#">
 <metadata>
  <rdf:RDF>
   <cc:Work rdf:about="">
    <dc:format>image/svg+xml</dc:format>
    <dc:type rdf:resource="http://purl.org/dc/dcmitype/StillImage"/>
    <dc:title/>
   </cc:Work>
  </rdf:RDF>
 </metadata>
 <path d="m184.24 26.347a2.852 2.852 0 1 0 0 5.703 2.847 2.847 0 0 0 2.844-2.858 2.844 2.844 0 0 0-2.844-2.845zm0 5.36a2.505 2.505 0 0 1-2.508-2.515 2.502 2.502 0 0 1 2.508-2.501 2.5 2.5 0 0 1 2.5 2.501 2.503 2.503 0 0 1-2.5 2.515z" clip-rule="evenodd" fill-rule="evenodd"/>
 <path d="m185.7 28.445c0-0.269-0.119-0.552-0.357-0.687-0.24-0.142-0.508-0.156-0.777-0.156h-1.389v3.187h0.389v-1.47h0.717l0.91 1.47h0.463l-0.963-1.47c0.568-0.016 1.007-0.247 1.007-0.874zm-1.537 0.567h-0.598v-1.127h0.91c0.396 0 0.83 0.06 0.83 0.553 1e-3 0.649-0.695 0.574-1.142 0.574zm-16.641-15.975 5.83-6.225c0.338-0.457 0.506-0.777 0.506-1.051 0-0.457-0.393-0.64-1.629-0.64h-1.471v-3.93h15.922v3.93h-2.092c-2.416 0-2.865 0.365-6.236 4.615l-9.223 9.96v6.078c0 1.555 0.785 2.102 3.033 2.102h3.482v3.792h-22.301v-3.792h3.482c2.246 0 3.033-0.547 3.033-2.102v-6.078l-10.863-12.017c-1.795-2.101-1.547-2.558-6.545-2.558v-3.93h20.168v3.93h-1.436c-1.461 0-2.08 0.274-2.08 0.822 0 0.458 0.449 0.823 0.73 1.188l5.496 5.99c0.653 0.679 1.45 0.767 2.194-0.084zm-135.32-11.847h4.865v10.966h-4.493c-0.398-2.192-1.77-3.045-3.021-4.195-2.257-2.074-7.145-3.801-11.256-3.801-5.306 0-9.784 1.646-9.784 4.066 0 6.718 30.345 1.372 30.345 14.074 0 6.625-6.5 10.326-18.173 10.326-4.041 0-10.156-1.254-13.764-3.17-1.131-0.653-1.611 0.618-1.823 2.211h-4.988v-11.332h4.512c0.995 2.879 2.366 3.472 3.627 4.615 2.188 2.011 7.396 3.474 12.172 3.427 7.201-0.071 9.677-1.645 9.677-3.93 0-2.284-2.449-2.833-10.34-4.066l-6.7-1.097c-7.561-1.143-13.066-2.833-13.066-8.864 0-6.26 6.964-10.19 17.975-10.19 4.64 0 8.522 0.62 12.248 2.726 1.032 0.671 2 0.751 1.987-1.766zm94.944 18.36 0.096-12.188c0-1.599-0.832-2.147-3.209-2.147h-2.793v-3.792h17.77v3.792h-2.316c-2.379 0-3.211 0.549-3.211 2.147v24.537l-6.955-0.055-22.524-21.329v15.49c0 1.554 0.832 2.147 3.209 2.147h3.092v3.747h-18.455v-3.747h3.058c2.377 0 3.209-0.594 3.209-2.147v-18.643c0-1.599-0.832-2.147-3.209-2.147h-3.058v-3.792h15.956zm-59.523-19.55c-14.162 0-23.027 6.261-23.027 16.312 0 9.871 8.742 16.084 22.595 16.084 14.714 0 23.273-6.122 23.273-16.586 1e-3 -9.412-9.235-15.81-22.841-15.81zm-0.322 28.422c-7.839 0-12.345-4.524-12.345-12.338 0-7.63 4.702-12.154 12.737-12.154 7.708 0 12.214 4.616 12.214 12.475 0 7.676-4.572 12.017-12.606 12.017z" clip-rule="evenodd" fill-rule="evenodd"/>
</svg>
