<?xml version="1.0" encoding="UTF-8"?>
<svg width="2016" height="922.72" version="1.1" viewBox="0 0 155.44 71.144" xmlns="http://www.w3.org/2000/svg" xmlns:cc="http://creativecommons.org/ns#" xmlns:dc="http://purl.org/dc/elements/1.1/" xmlns:rdf="http://www.w3.org/1999/02/22-rdf-syntax-ns#">
 <metadata>
  <rdf:RDF>
   <cc:Work rdf:about="">
    <dc:format>image/svg+xml</dc:format>
    <dc:type rdf:resource="http://purl.org/dc/dcmitype/StillImage"/>
    <dc:title/>
   </cc:Work>
  </rdf:RDF>
 </metadata>
 <path d="m74.154 0-12.428 7.176c-0.874 0.506-1.588 1.745-1.585 2.755l-0.029 14.353c11.555-1.325 9.733-8.604 14.042-24.284zm-12.63 26.754c0.096 0.053 12.429 7.176 12.429 7.176 0.875 0.502 2.307 0.501 3.179-6e-3l12.444-7.15c-6.926-9.346-12.318-4.129-28.052-0.02zm29.484-2.44c-2e-3 -0.11-2e-3 -14.351-2e-3 -14.351 0-1.009-0.715-2.246-1.594-2.75l-12.413-7.202c-4.629 10.67 2.585 12.732 14.009 24.303zm45.269 22.401h6.875l6.611 14.622h0.067v-14.597l4e-3 -0.025h5.607v23.646h-6.465l-7.08-14.321h-0.066v14.267l-0.016 0.054h-5.537zm-58.306 23.645 4.847-15.897h0.067v15.872l3e-3 0.024h5.549v-23.646h-8.752l-3.633 13.603h-0.108l-3.633-13.603h-8.753v23.646h5.549l4e-3 -0.024v-15.872h0.066l4.848 15.897zm-46.663-23.652v8.671h-7.032v-8.671l-24.274 7e-3 -2e-3 5.066h6.443v18.573h5.983l2e-3 -18.573h5.862v18.573h5.986v-9.854h7.032v9.854h5.984v-23.646zm26.588 1.97c-2.276-2.509-5.934-2.736-7.54-2.736-1.607 0-5.266 0.228-7.542 2.736-1.633 1.797-2.643 4.679-2.643 9.865 0 5.185 1.01 8.066 2.643 9.865 2.276 2.506 5.935 2.735 7.542 2.735 1.606 0 5.264-0.229 7.54-2.735 1.634-1.799 2.643-4.681 2.643-9.865 0-5.186-1.009-8.068-2.643-9.865zm-3.804 15.263c-0.59 1.431-1.91 2.426-3.736 2.426-1.828 0-3.147-0.995-3.738-2.426-0.585-1.42-0.63-3.342-0.632-5.397 0-2.058 0.047-3.98 0.632-5.398 0.59-1.43 1.91-2.427 3.738-2.427 1.826 0 3.146 0.997 3.736 2.427 0.586 1.417 0.631 3.341 0.631 5.396 2e-3 2.056-0.045 3.98-0.631 5.399zm76.462-15.263c-2.275-2.509-5.936-2.736-7.541-2.736-1.607 0-5.266 0.228-7.541 2.736-1.635 1.797-2.643 4.679-2.643 9.865 0 5.185 1.008 8.066 2.643 9.865 2.275 2.506 5.934 2.735 7.541 2.735 1.605 0 5.266-0.229 7.541-2.735 1.633-1.799 2.643-4.681 2.643-9.865 0-5.186-1.01-8.068-2.643-9.865zm-3.804 15.263c-0.59 1.431-1.91 2.426-3.736 2.426s-3.146-0.995-3.736-2.426c-0.586-1.42-0.631-3.342-0.631-5.397 0-2.058 0.045-3.98 0.631-5.398 0.59-1.43 1.91-2.427 3.736-2.427s3.146 0.997 3.736 2.427c0.586 1.417 0.631 3.341 0.633 5.396 0 2.056-0.047 3.98-0.633 5.399zm-35.082-10.681c0-4.833 4.293-7.269 9.24-7.269 5.082 0 9.039 2.504 9.064 7.592h-6.041c0.039-1.196-0.43-1.974-1.131-2.455-0.602-0.412-1.373-0.604-2.229-0.604-1.348 0-2.766 0.557-2.799 2.13-2e-3 0.127 0.012 0.25 0.033 0.367 0.344 1.805 3.281 2.267 6.301 3.2 3.238 1.009 6.535 2.576 6.535 6.963 0 5.925-4.533 7.96-9.812 7.96-4.691 0-8.791-1.746-9.572-6.61-0.064-0.402-0.117-1.315-0.119-1.773h6.039c0.01 0.262 0.043 0.766 0.096 0.981 0.332 1.965 1.609 2.869 3.812 2.869 1.928 0 3.455-0.932 3.455-2.598 0-2.283-3.189-2.741-6.398-3.746-3.181-1.003-6.474-2.553-6.474-7.007z" clip-rule="evenodd" fill="#282e2f" fill-rule="evenodd"/>
</svg>
